<svg xmlns="http://www.w3.org/2000/svg" viewBox="0 0 1200 185.5"><title>Closor Logo Wide</title><path d="M189.9,115H83.32a22.32,22.32,0,1,1,0-44.64H189.9a22.32,22.32,0,0,1,0,44.64Z" style="fill:#34a853"></path><path d="M22.33,115c-.37,0-.74,0-1.1,0s-.73,0-1.1-.08-.73-.08-1.09-.14-.72-.12-1.08-.19-.71-.15-1.06-.24L15.84,114l-1-.34c-.34-.13-.69-.26-1-.4s-.67-.28-1-.44-.66-.32-1-.49-.64-.35-1-.54-.63-.38-.93-.58-.6-.41-.9-.63-.58-.44-.86-.67l-.83-.72c-.27-.25-.54-.5-.8-.76s-.51-.52-.76-.8-.48-.54-.72-.83L4.39,106l-.63-.9c-.2-.3-.39-.61-.58-.93s-.36-.63-.54-1l-.49-1c-.15-.33-.3-.67-.44-1s-.27-.68-.39-1-.24-.69-.34-1-.21-.7-.3-1-.17-.71-.24-1.07S.3,96.33.25,96s-.1-.73-.14-1.08-.06-.74-.08-1.1,0-.74,0-1.1,0-.74,0-1.1.05-.73.08-1.1.09-.72.14-1.08.12-.72.19-1.08.15-.71.24-1.07.19-.7.3-1.05.21-.7.34-1,.25-.68.39-1,.29-.67.44-1l.49-1c.18-.32.35-.64.54-1s.38-.63.58-.93.42-.61.63-.9l.67-.86q.36-.44.72-.84l.76-.8c.26-.25.53-.51.8-.75s.55-.49.83-.72.57-.46.86-.67.6-.43.9-.63.62-.4.93-.58.63-.37,1-.54.65-.33,1-.49.66-.31,1-.44.68-.27,1-.4.69-.24,1-.34.71-.2,1.06-.29L18,70.8,19,70.61c.36,0,.73-.1,1.09-.13s.73-.07,1.1-.08a20.18,20.18,0,0,1,2.2,0c.36,0,.73,0,1.09.08s.73.08,1.09.13l1.08.19,1.07.25c.35.09.7.18,1,.29s.69.22,1,.34l1,.4c.34.13.68.28,1,.44s.66.32,1,.49.64.35.95.54.63.38.93.58.61.41.9.63.58.44.86.67.56.47.84.72.54.5.79.75.52.53.76.8.49.55.72.84l.67.86q.32.43.63.9c.2.3.4.61.58.93s.37.63.54,1,.33.65.49,1,.3.67.44,1,.27.68.39,1,.24.69.35,1,.21.7.29,1.05.17.71.25,1.07.13.72.18,1.08.11.72.14,1.08.07.73.08,1.1,0,.74,0,1.1,0,.74,0,1.1,0,.73-.08,1.1-.08.72-.14,1.08-.11.72-.18,1.08-.16.71-.25,1.07-.18.7-.29,1-.22.7-.35,1-.25.68-.39,1-.29.67-.44,1-.32.65-.49,1-.35.64-.54,1-.38.63-.58.93l-.63.9-.67.86c-.23.29-.47.57-.72.83s-.5.54-.76.8-.53.51-.79.76l-.84.72c-.28.23-.57.46-.86.67s-.6.43-.9.63-.62.39-.93.58-.63.37-.95.54-.65.33-1,.49-.66.3-1,.44l-1,.4-1,.34-1,.29c-.35.09-.72.17-1.07.24s-.72.14-1.08.19-.73.1-1.09.14-.73.07-1.09.08Z" style="fill:#ea4335"></path><path d="M421,115H312.79a22.32,22.32,0,1,1,0-44.64H421A22.32,22.32,0,1,1,421,115Z" style="fill:#fbbc05"></path><path d="M251.44,115l-1.1,0c-.36,0-.73,0-1.09-.08s-.73-.08-1.09-.14-.72-.12-1.08-.19-.72-.15-1.07-.24l-1-.29-1-.34-1-.4c-.34-.14-.68-.28-1-.44s-.66-.32-1-.49-.64-.35-1-.54-.63-.38-.93-.58-.61-.41-.9-.63-.58-.44-.86-.67l-.84-.72c-.26-.25-.54-.5-.79-.76s-.52-.52-.76-.8-.49-.54-.72-.83-.45-.57-.67-.86-.43-.6-.63-.9-.4-.61-.58-.93-.37-.63-.54-1-.34-.65-.49-1-.3-.67-.44-1-.27-.68-.39-1-.24-.69-.35-1-.21-.7-.3-1-.16-.71-.24-1.07-.13-.72-.19-1.08-.1-.73-.14-1.08-.06-.74-.07-1.1,0-.74,0-1.1,0-.74,0-1.1,0-.73.07-1.1.09-.72.14-1.08.12-.72.19-1.08.15-.71.24-1.07.19-.7.3-1.05.22-.7.35-1,.25-.68.39-1,.29-.67.44-1,.32-.65.49-1,.35-.64.54-1,.38-.63.58-.93.42-.61.63-.9.44-.58.67-.86.47-.57.72-.84.5-.53.76-.8.53-.51.79-.75.56-.49.84-.72.57-.46.86-.67.6-.43.9-.63.62-.4.93-.58.63-.37,1-.54.65-.33,1-.49.66-.31,1-.44l1-.4c.35-.12.69-.24,1-.34s.7-.2,1-.29l1.07-.25,1.08-.19c.36,0,.72-.1,1.09-.13s.73-.07,1.09-.08a20.18,20.18,0,0,1,2.2,0c.37,0,.73,0,1.1.08s.73.08,1.08.13l1.09.19,1.06.25c.35.09.71.18,1.05.29s.7.22,1,.34.69.26,1,.4.67.28,1,.44l1,.49c.32.17.64.35,1,.54s.63.38.93.58.6.41.89.63.58.44.87.67.56.47.83.72.54.5.8.75l.76.8q.36.4.72.84c.22.28.45.57.66.86s.43.59.63.9.4.61.58.93.37.63.55,1l.49,1c.15.33.3.67.44,1s.27.68.39,1,.24.69.34,1,.21.7.3,1.05.17.71.24,1.07.14.72.19,1.08.1.72.14,1.08.06.73.08,1.1,0,.74,0,1.1,0,.74,0,1.1-.05.73-.08,1.1-.09.72-.14,1.08-.12.72-.19,1.08-.15.71-.24,1.07-.19.7-.3,1-.21.7-.34,1-.25.68-.39,1-.29.67-.44,1l-.49,1c-.18.32-.36.64-.55,1s-.37.63-.58.93-.41.6-.63.9-.44.58-.66.86-.48.57-.72.83-.5.54-.76.8-.53.51-.8.76l-.83.72c-.29.23-.58.46-.87.67s-.59.43-.89.63-.62.39-.93.58-.63.37-1,.54-.65.33-1,.49-.66.3-1,.44-.68.27-1,.4l-1,.34-1.05.29c-.35.09-.71.17-1.06.24s-.72.14-1.09.19-.72.1-1.08.14-.73.07-1.1.08S251.81,115,251.44,115Z" style="fill:#4185f4"></path><path d="M160.7,184.2H83.12a22.32,22.32,0,1,1,0-44.64H160.7a22.32,22.32,0,1,1,0,44.64Z" style="fill:#4185f4"></path><path d="M222,184.2c-.37,0-.73,0-1.1,0l-1.1-.08c-.36,0-.72-.08-1.08-.14s-.72-.12-1.08-.19-.71-.15-1.07-.24l-1.05-.29-1-.34-1-.4-1-.44-1-.49c-.32-.17-.64-.35-.95-.54s-.63-.38-.93-.58-.61-.41-.9-.63-.58-.44-.86-.67l-.84-.72-.8-.76c-.25-.26-.51-.52-.76-.8s-.48-.55-.71-.83-.46-.57-.67-.86-.43-.6-.63-.9-.4-.61-.58-.93-.37-.63-.54-1-.33-.65-.49-1-.31-.67-.44-1-.27-.68-.4-1-.24-.69-.34-1-.2-.7-.29-1.05-.18-.71-.25-1.07-.13-.72-.19-1.08-.1-.73-.13-1.09-.07-.73-.09-1.09,0-.74,0-1.1,0-.74,0-1.1,0-.73.09-1.1.08-.72.13-1.08.12-.72.19-1.08.16-.72.25-1.07.18-.7.29-1,.22-.7.34-1,.26-.68.4-1,.28-.67.44-1,.32-.65.49-1,.35-.64.54-.94.38-.63.58-.93.41-.61.63-.9.44-.58.67-.86.47-.57.71-.84l.76-.8c.27-.25.53-.51.8-.75s.55-.49.84-.72.57-.46.86-.67.6-.43.9-.63.61-.4.93-.58.63-.37.95-.54.65-.34,1-.49.67-.31,1-.45l1-.39c.34-.12.69-.24,1-.34s.7-.21,1.05-.3l1.07-.24,1.08-.19c.36-.05.72-.1,1.08-.13s.73-.07,1.1-.08a20.18,20.18,0,0,1,2.2,0c.36,0,.74,0,1.1.08s.72.08,1.09.13l1.07.19c.36.08.72.15,1.07.24s.71.19,1.05.3.7.22,1,.34l1,.39c.33.14.67.29,1,.45s.66.32,1,.49.65.35,1,.54.62.38.92.58.61.41.9.63.59.44.87.67.56.47.83.72.54.5.79.75.52.53.76.8.49.55.72.84.46.57.67.86.43.59.63.9.4.61.59.93.36.63.53.94.34.66.49,1,.31.67.44,1,.28.68.4,1,.24.69.35,1,.2.7.29,1,.17.71.24,1.07.14.72.19,1.08.1.72.14,1.08.06.73.08,1.1,0,.73,0,1.1,0,.74,0,1.1-.05.73-.08,1.09-.09.73-.14,1.09-.12.72-.19,1.08-.15.71-.24,1.07-.19.7-.29,1.05-.23.7-.35,1-.26.68-.4,1-.28.67-.44,1-.31.65-.49,1-.35.64-.53,1-.39.63-.59.93-.41.6-.63.9-.44.58-.67.86-.47.57-.72.83-.49.54-.76.8-.52.51-.79.76l-.83.72c-.28.23-.58.45-.87.67s-.59.43-.9.63-.61.39-.92.58-.63.37-1,.54-.64.33-1,.49l-1,.44c-.33.14-.68.27-1,.4l-1,.34-1.05.29c-.35.09-.71.17-1.07.24s-.72.14-1.07.19-.73.1-1.09.14l-1.1.08C222.78,184.19,222.4,184.2,222,184.2Z" style="fill:#34a853"></path><path d="M360.05,184.2H282.47a22.32,22.32,0,0,1,0-44.64h77.58a22.32,22.32,0,1,1,0,44.64Z" style="fill:#606269"></path><path d="M421,184.2l-1.1,0-1.09-.08c-.37,0-.73-.08-1.09-.14s-.73-.12-1.08-.19-.72-.15-1.07-.24l-1.05-.29-1-.34c-.34-.13-.69-.26-1-.4l-1-.44c-.33-.16-.66-.32-1-.49s-.65-.35-1-.54-.62-.38-.92-.58-.61-.41-.9-.63l-.87-.67-.83-.72c-.27-.25-.54-.5-.79-.76s-.52-.52-.76-.8-.49-.55-.72-.83-.45-.57-.67-.86-.43-.6-.63-.9-.4-.61-.58-.93-.37-.63-.54-1-.34-.65-.49-1-.3-.67-.44-1-.28-.68-.4-1-.23-.69-.34-1-.21-.7-.3-1.05-.16-.71-.24-1.07-.14-.72-.19-1.08-.1-.73-.13-1.09-.07-.73-.09-1.09,0-.74,0-1.1,0-.74,0-1.1.05-.73.09-1.1.08-.72.13-1.08.12-.72.19-1.08.15-.72.24-1.07.19-.7.3-1,.22-.7.34-1,.26-.68.4-1,.29-.67.44-1,.32-.65.49-1,.35-.64.54-.94.38-.63.58-.93.41-.61.63-.9.44-.58.67-.86.47-.57.72-.84.5-.54.76-.8.52-.51.79-.75.56-.49.83-.72.58-.46.87-.67.6-.43.9-.63.61-.4.92-.58.64-.37,1-.54.64-.34,1-.49.67-.31,1-.45l1-.39c.34-.12.69-.24,1-.34s.7-.21,1.05-.3.71-.16,1.07-.24l1.08-.19c.36-.05.72-.1,1.09-.13s.73-.07,1.09-.08a20.18,20.18,0,0,1,2.2,0c.37,0,.73,0,1.1.08s.73.08,1.08.13l1.09.19c.35.08.71.15,1.06.24s.7.19,1,.3.7.22,1,.34l1,.39c.33.14.67.29,1,.45l1,.49c.31.17.64.35.95.54s.62.38.92.58.61.41.9.63.58.44.86.67.57.47.84.72.54.5.8.75l.76.8c.24.27.48.55.71.84s.46.57.67.86.43.59.64.9.39.61.58.93.36.63.53.94.34.66.49,1,.31.67.45,1,.26.68.39,1,.24.69.34,1,.21.7.3,1,.17.71.24,1.07.13.72.19,1.08.1.72.14,1.08.06.73.08,1.1,0,.73,0,1.1,0,.74,0,1.1,0,.73-.08,1.09-.09.73-.14,1.09-.12.72-.19,1.08-.15.71-.24,1.07-.19.7-.3,1.05-.22.7-.34,1-.25.68-.39,1-.29.67-.45,1-.32.65-.49,1-.35.64-.53,1-.38.63-.58.93l-.64.9c-.21.29-.44.58-.67.86s-.47.57-.71.83-.51.54-.76.8-.53.51-.8.76l-.84.72c-.28.23-.57.45-.86.67s-.59.43-.9.63-.61.39-.92.58-.64.37-.95.54l-1,.49-1,.44-1,.4-1,.34-1,.29c-.35.09-.71.17-1.06.24s-.72.14-1.09.19-.72.1-1.08.14l-1.1.08C421.77,184.19,421.41,184.2,421,184.2Z" style="fill:#4185f4"></path><path d="M22.38,184.2c-.37,0-.74,0-1.1,0l-1.1-.08c-.36,0-.73-.08-1.08-.14s-.73-.12-1.09-.19-.71-.15-1.06-.24l-1.06-.29-1-.34c-.34-.13-.69-.26-1-.4l-1-.44-1-.49c-.32-.17-.64-.35-.95-.54l-.93-.58c-.3-.2-.6-.41-.89-.63l-.87-.67-.83-.72c-.27-.25-.54-.5-.8-.76s-.51-.52-.76-.8-.48-.55-.72-.83l-.67-.86-.63-.9c-.2-.3-.39-.61-.58-.93l-.54-1-.49-1c-.15-.33-.3-.67-.44-1s-.27-.68-.39-1-.24-.69-.34-1-.21-.7-.3-1.05-.17-.71-.24-1.07-.14-.72-.19-1.08-.1-.73-.14-1.09S.1,163.34.08,163s0-.74,0-1.1,0-.74,0-1.1.05-.73.08-1.1.09-.72.14-1.08.12-.72.19-1.08.15-.72.24-1.07.19-.7.3-1,.21-.7.34-1,.25-.68.39-1,.29-.67.44-1l.49-1c.18-.31.36-.64.54-.94s.38-.63.58-.93.42-.61.63-.9l.67-.86.72-.84.76-.8c.26-.25.53-.51.8-.75s.55-.49.83-.72.58-.46.87-.67.59-.43.89-.63.62-.4.93-.58.63-.37.95-.54.65-.34,1-.49.66-.31,1-.45l1-.39c.34-.12.69-.24,1-.34s.71-.21,1.06-.3.71-.16,1.06-.24l1.09-.19c.35-.05.72-.1,1.08-.13s.73-.07,1.1-.08a20.18,20.18,0,0,1,2.2,0c.36,0,.73,0,1.09.08s.73.08,1.09.13l1.08.19c.35.08.72.15,1.07.24s.7.19,1.05.3.69.22,1,.34l1,.39c.34.14.68.29,1,.45s.65.32,1,.49.65.35,1,.54.63.38.93.58.61.41.9.63.58.44.86.67.56.47.84.72.54.5.79.75.52.53.76.8.49.55.72.84.45.57.67.86.43.59.63.9.4.61.58.93.37.63.54.94.34.66.49,1,.3.67.44,1,.27.68.39,1,.24.69.35,1,.21.7.3,1,.16.71.24,1.07.13.72.19,1.08.1.72.13,1.08.07.73.08,1.1,0,.73,0,1.1,0,.74,0,1.1,0,.73-.08,1.09-.08.73-.13,1.09-.12.72-.19,1.08-.15.71-.24,1.07-.19.7-.3,1.05-.22.7-.35,1-.25.68-.39,1-.29.67-.44,1-.32.65-.49,1-.35.64-.54,1-.38.63-.58.93-.41.6-.63.9-.44.58-.67.86-.47.57-.72.83-.5.54-.76.8-.53.51-.79.76l-.84.72c-.28.23-.57.45-.86.67s-.6.43-.9.63-.62.39-.93.58-.63.37-1,.54l-1,.49-1,.44-1,.4-1,.34-1.05.29c-.35.09-.72.17-1.07.24s-.72.14-1.08.19-.72.1-1.09.14l-1.09.08Z" style="fill:#fbbc05"></path><path d="M222,45.94H144.46a22.32,22.32,0,0,1,0-44.64H222a22.32,22.32,0,1,1,0,44.64Z" style="fill:#ea4335"></path><path d="M360.05,45.94H282.47a22.32,22.32,0,0,1,0-44.64h77.58a22.32,22.32,0,1,1,0,44.64Z" style="fill:#34a853"></path><path d="M83.12,45.94c-.37,0-.74,0-1.1,0s-.73,0-1.1-.08-.73-.08-1.09-.14-.72-.11-1.08-.19-.71-.15-1.06-.24L76.63,45c-.34-.11-.69-.22-1-.35s-.69-.25-1-.39l-1-.44c-.33-.15-.66-.32-1-.49s-.64-.35-.95-.54-.63-.38-.93-.58-.6-.41-.89-.63L69,40.88c-.28-.23-.56-.47-.83-.72s-.54-.5-.8-.76-.51-.52-.76-.79l-.72-.83c-.22-.29-.45-.58-.66-.87s-.43-.6-.63-.9-.4-.62-.59-.93l-.54-.95-.49-1c-.15-.33-.3-.67-.44-1s-.27-.67-.39-1-.24-.69-.34-1-.21-.7-.3-1.05-.17-.72-.24-1.07-.14-.72-.19-1.08-.1-.72-.14-1.09-.06-.73-.08-1.09,0-.73,0-1.1,0-.73,0-1.1,0-.73.08-1.09.09-.74.14-1.09.12-.73.19-1.08.15-.72.24-1.07.19-.71.3-1.05.21-.7.34-1,.25-.69.39-1,.29-.67.44-1,.33-.66.49-1l.54-1c.19-.31.38-.62.59-.92s.41-.61.63-.9.44-.58.66-.87l.72-.83c.25-.27.51-.54.76-.79s.53-.52.8-.76.55-.49.83-.72l.87-.67c.29-.22.59-.43.89-.63s.62-.4.93-.58.63-.37.95-.54.65-.34,1-.49l1-.44c.33-.14.68-.27,1-.39s.69-.24,1-.35.71-.21,1.06-.29.71-.17,1.06-.24.72-.14,1.08-.19.73-.1,1.09-.14L82,1.32c.73,0,1.46,0,2.2,0,.36,0,.73.05,1.09.09s.73.08,1.09.14.72.11,1.08.19L88.55,2c.35.08.7.18,1,.29s.69.22,1,.35.68.25,1,.39l1,.44c.33.15.66.32,1,.49s.64.35,1,.54.63.38.93.58.61.41.9.63.58.44.86.67.56.47.84.72.54.5.79.76.52.52.76.79.49.56.72.83l.67.87c.21.29.43.6.63.9s.4.61.58.92.37.64.54,1,.33.64.49,1,.3.66.44,1,.27.68.39,1,.24.69.35,1,.21.7.29,1.05.17.71.25,1.07.13.72.19,1.08.1.72.13,1.09.07.73.08,1.09,0,.73,0,1.1,0,.73,0,1.1,0,.73-.08,1.09-.08.73-.13,1.09-.12.73-.19,1.08-.16.72-.25,1.07-.18.7-.29,1.05-.22.69-.35,1-.25.68-.39,1-.29.68-.44,1-.32.65-.49,1-.35.64-.54.95-.38.63-.58.93-.42.61-.63.9l-.67.87-.72.83c-.24.27-.5.54-.76.79s-.53.52-.79.76l-.84.72c-.28.23-.57.45-.86.67s-.6.43-.9.63-.62.4-.93.58-.63.37-1,.54-.65.34-1,.49l-1,.44c-.33.14-.67.27-1,.39s-.69.24-1,.35l-1,.29-1.07.24c-.36.08-.72.14-1.08.19s-.72.1-1.09.14-.73.06-1.09.08Z" style="fill:#606269"></path><path d="M421,45.94l-1.1,0c-.36,0-.73,0-1.09-.08s-.73-.08-1.09-.14-.73-.11-1.08-.19-.72-.15-1.07-.24L414.56,45c-.35-.11-.7-.22-1-.35s-.69-.25-1-.39l-1-.44c-.33-.15-.65-.32-1-.49s-.65-.35-1-.54-.62-.38-.92-.58-.61-.41-.9-.63l-.87-.67c-.27-.23-.56-.47-.83-.72s-.54-.5-.79-.76-.52-.52-.76-.79l-.72-.83-.67-.87c-.22-.29-.43-.6-.63-.9s-.4-.62-.58-.93-.37-.63-.54-.95-.34-.65-.49-1-.3-.67-.44-1-.28-.67-.39-1-.24-.69-.35-1-.21-.7-.3-1.05-.16-.72-.24-1.07-.14-.72-.19-1.08-.1-.72-.13-1.09-.07-.73-.09-1.09,0-.73,0-1.1,0-.73,0-1.1.05-.73.09-1.09.08-.74.13-1.09.12-.73.19-1.08.15-.72.24-1.07.19-.71.3-1.05.22-.7.35-1,.25-.69.39-1,.29-.67.44-1,.32-.66.49-1,.35-.65.54-1,.38-.62.58-.92.41-.61.63-.9l.67-.87c.23-.27.47-.56.72-.83s.5-.54.76-.79.52-.52.79-.76.56-.49.83-.72l.87-.67c.29-.22.6-.43.9-.63s.61-.4.92-.58.64-.37,1-.54.64-.34,1-.49l1-.44c.33-.14.68-.27,1-.39s.69-.24,1-.35.7-.21,1.05-.29.71-.17,1.07-.24.72-.14,1.08-.19.72-.1,1.09-.14.73-.06,1.09-.09c.73,0,1.47,0,2.2,0l1.1.09c.36,0,.73.08,1.08.14s.73.11,1.08.19.72.15,1.07.24.7.18,1,.29.7.22,1,.35.68.25,1,.39l1,.44,1,.49c.31.17.64.35.95.54s.62.38.92.58.61.41.9.63l.87.67c.28.23.56.47.83.72s.54.5.8.76.51.52.76.79.48.56.71.83.46.58.67.87.43.6.64.9.39.61.58.92.36.64.53,1,.34.64.49,1,.31.66.45,1,.26.68.39,1,.24.69.34,1,.21.7.3,1.05.17.71.24,1.07.13.72.19,1.08.1.72.14,1.09.06.73.08,1.09,0,.73,0,1.1,0,.73,0,1.1,0,.73-.08,1.09-.09.73-.14,1.09-.12.73-.19,1.08-.15.72-.24,1.07-.19.7-.3,1.05-.22.69-.34,1-.25.68-.39,1-.29.68-.45,1-.32.65-.49,1-.35.64-.53.95-.38.63-.58.93-.42.61-.64.9-.44.58-.67.87l-.71.83c-.25.27-.51.54-.76.79s-.53.52-.8.76-.55.49-.83.72l-.87.67q-.43.33-.9.63c-.3.2-.61.4-.92.58s-.64.37-.95.54l-1,.49-1,.44q-.51.21-1,.39c-.34.13-.69.24-1,.35l-1,.29c-.35.09-.71.17-1.07.24s-.72.14-1.08.19-.72.1-1.08.14-.73.06-1.1.08S421.41,45.94,421,45.94Z" style="fill:#fbbc07"></path><path d="M22.38,45.94c-.37,0-.74,0-1.1,0s-.73,0-1.1-.08-.73-.08-1.08-.14-.73-.11-1.09-.19-.71-.15-1.06-.24L15.89,45c-.34-.11-.69-.22-1-.35s-.69-.25-1-.39l-1-.44c-.33-.15-.66-.32-1-.49s-.64-.35-.95-.54-.63-.38-.93-.58-.6-.41-.89-.63l-.87-.67c-.28-.23-.56-.47-.83-.72s-.54-.5-.8-.76-.51-.52-.76-.79l-.72-.83-.67-.87L3.81,36c-.2-.3-.39-.62-.58-.93l-.54-.95-.49-1c-.15-.33-.3-.67-.44-1s-.27-.67-.39-1-.24-.69-.34-1-.21-.7-.3-1.05S.56,28.33.49,28,.35,27.26.3,26.9s-.1-.72-.14-1.09S.1,25.08.08,24.72s0-.73,0-1.1,0-.73,0-1.1.05-.73.08-1.09.09-.74.14-1.09.12-.73.19-1.08.15-.72.24-1.07.19-.71.3-1.05.21-.7.34-1,.25-.69.39-1,.29-.67.44-1,.33-.66.49-1l.54-1c.19-.31.38-.62.58-.92s.42-.61.63-.9l.67-.87.72-.83c.25-.27.51-.54.76-.79s.53-.52.8-.76.55-.49.83-.72l.87-.67c.29-.22.59-.43.89-.63s.62-.4.93-.58.63-.37.95-.54.65-.34,1-.49l1-.44c.33-.14.68-.27,1-.39s.69-.24,1-.35S16.6,2.06,17,2s.71-.17,1.06-.24.72-.14,1.09-.19.72-.1,1.08-.14l1.1-.09c.73,0,1.47,0,2.2,0,.36,0,.73.05,1.09.09s.73.08,1.09.14.73.11,1.08.19.72.15,1.07.24.7.18,1.05.29.69.22,1,.35.68.25,1,.39l1,.44c.32.15.65.32,1,.49s.65.35,1,.54.63.38.93.58.61.41.9.63.58.44.86.67.56.47.84.72.54.5.79.76.52.52.76.79.49.56.72.83l.67.87c.22.29.43.6.63.9s.4.61.58.92.37.64.54,1,.34.64.49,1,.3.66.44,1,.27.68.39,1,.24.69.35,1,.21.7.3,1.05.16.71.24,1.07.13.72.19,1.08.1.72.13,1.09.07.73.08,1.09,0,.73,0,1.1,0,.73,0,1.1,0,.73-.08,1.09-.08.73-.13,1.09-.12.73-.19,1.08-.15.72-.24,1.07-.19.7-.3,1.05-.22.69-.35,1-.25.68-.39,1-.29.68-.44,1-.32.65-.49,1-.35.64-.54.95-.38.63-.58.93-.41.61-.63.9l-.67.87-.72.83c-.24.27-.5.54-.76.79s-.53.52-.79.76-.56.49-.84.72-.57.45-.86.67-.6.43-.9.63-.62.4-.93.58-.63.37-1,.54-.65.34-1,.49l-1,.44c-.33.14-.67.27-1,.39s-.69.24-1,.35l-1.05.29c-.35.09-.72.17-1.07.24s-.72.14-1.08.19-.72.1-1.09.14-.73.06-1.09.08Z" style="fill:#4383f4"></path><path d="M674.48,35.48,651,57.9q-24-25.36-54-25.36-25.32,0-42.65,17.3T537,92.51q0,17.67,7.68,31.37a55,55,0,0,0,21.71,21.51,63,63,0,0,0,31.2,7.81,64.21,64.21,0,0,0,26.75-5.47q12.12-5.46,26.64-19.89l22.79,23.79q-19.57,19.1-37,26.48T597,185.5q-41.19,0-67.43-26.11T503.37,92.45q0-26.42,11.94-46.95t34.23-33A96.46,96.46,0,0,1,597.51,0a101.82,101.82,0,0,1,77,35.48Z" style="fill:#475066"></path><path d="M687.85,0h32.78V181.06H687.85Z" style="fill:#475066"></path><path d="M802.92,47.07a69.27,69.27,0,0,1,34.76,9.24,66.76,66.76,0,0,1,25.4,25.09,67.5,67.5,0,0,1,9.13,34.22A68.62,68.62,0,0,1,863,150.2a66.18,66.18,0,0,1-25,25.15A69,69,0,0,1,803,184.42q-28.1,0-48-20t-19.88-48.57q0-30.61,22.46-51Q777.35,47.07,802.92,47.07Zm.54,30.85q-15.29,0-25.44,10.63t-10.17,27.19q0,17.06,10,27.62t25.44,10.56q15.39,0,25.62-10.68t10.22-27.5q0-16.8-10-27.31T803.46,77.92Z" style="fill:#475066"></path><path d="M969.86,68.68,949.57,89Q937.2,76.72,927.11,76.72q-5.52,0-8.64,2.34a7,7,0,0,0-3.13,5.83,7.12,7.12,0,0,0,2,4.86q2,2.22,9.78,6.06l12,6q19,9.38,26.06,19.1a37.69,37.69,0,0,1,7.08,22.81,37.66,37.66,0,0,1-12.79,29.05q-12.78,11.65-34.28,11.65-28.58,0-45.63-22.33l20.17-22A46.74,46.74,0,0,0,913.24,151q7.75,4.14,13.75,4.14,6.48,0,10.45-3.12t4-7.2q0-7.56-14.29-14.77l-11.05-5.52q-31.69-16-31.7-40,0-15.5,11.95-26.48t30.56-11a53,53,0,0,1,43,21.61Z" style="fill:#475066"></path><path d="M1050.59,47.07a69.24,69.24,0,0,1,34.76,9.24,66.76,66.76,0,0,1,25.4,25.09,67.5,67.5,0,0,1,9.13,34.22,68.52,68.52,0,0,1-9.19,34.58,66.18,66.18,0,0,1-25,25.15,69,69,0,0,1-34.94,9.07q-28.1,0-48-20t-19.88-48.57q0-30.61,22.46-51Q1025,47.07,1050.59,47.07Zm.54,30.85q-15.27,0-25.44,10.63t-10.16,27.19q0,17.06,10,27.62T1051,153.92q15.39,0,25.62-10.68t10.22-27.5q0-16.8-10-27.31T1051.13,77.92Z" style="fill:#475066"></path><path d="M1129.87,50.43H1158V66.88q4.56-9.73,12.13-14.77a29.27,29.27,0,0,1,16.57-5A30.68,30.68,0,0,1,1200,50.43l-10.21,28.21q-5.76-2.88-9.48-2.88-7.57,0-12.79,9.37t-5.23,36.74l.12,6.36v52.83h-32.54Z" style="fill:#475066"></path></svg>