<?xml version="1.0" encoding="utf-8"?>
<!-- Generator: Adobe Illustrator 24.0.1, SVG Export Plug-In . SVG Version: 6.00 Build 0)  -->
<svg version="1.1" id="Layer_1" xmlns="http://www.w3.org/2000/svg" xmlns:xlink="http://www.w3.org/1999/xlink" x="0px" y="0px"
	 viewBox="0 0 1200 185.5" style="enable-background:new 0 0 1200 185.5;" xml:space="preserve">
<style type="text/css">
	.st0{fill:#34A853;}
	.st1{fill:#EA4335;}
	.st2{fill:#FBBC05;}
	.st3{fill:#4185F4;}
	.st4{fill:#FFFFFF;}
	.st5{fill:#FBBC07;}
	.st6{fill:#4383F4;}
</style>
<title>Closor Logo Wide</title>
<path class="st0" d="M189.9,115H83.3C71,115,61,105,61,92.7s10-22.3,22.3-22.3l0,0h106.6c12.3,0,22.3,10,22.3,22.3
	S202.2,115,189.9,115z"/>
<path class="st1" d="M22.3,115c-0.4,0-0.7,0-1.1,0s-0.7,0-1.1-0.1s-0.7-0.1-1.1-0.1s-0.7-0.1-1.1-0.2s-0.7-0.2-1.1-0.2l-1.1-0.3
	l-1-0.3c-0.3-0.1-0.7-0.3-1-0.4s-0.7-0.3-1-0.4s-0.7-0.3-1-0.5s-0.6-0.3-1-0.5s-0.6-0.4-0.9-0.6s-0.6-0.4-0.9-0.6s-0.6-0.4-0.9-0.7
	l-0.8-0.7c-0.3-0.3-0.5-0.5-0.8-0.8s-0.5-0.5-0.8-0.8s-0.5-0.5-0.7-0.8L4.4,106l-0.6-0.9c-0.2-0.3-0.4-0.6-0.6-0.9s-0.4-0.6-0.5-1
	l-0.5-1c-0.1-0.3-0.3-0.7-0.4-1s-0.3-0.7-0.4-1s-0.2-0.7-0.3-1s-0.2-0.7-0.3-1s-0.2-0.7-0.2-1.1S0.3,96.3,0.3,96s-0.1-0.7-0.1-1.1
	S0.1,94.2,0,93.8s0-0.7,0-1.1s0-0.7,0-1.1s0-0.7,0.1-1.1s0.1-0.7,0.1-1.1s0.1-0.7,0.2-1.1s0.2-0.7,0.2-1.1s0.2-0.7,0.3-1.1
	s0.2-0.7,0.3-1s0.3-0.7,0.4-1s0.3-0.7,0.4-1l0.5-1c0.2-0.3,0.3-0.6,0.5-1s0.4-0.6,0.6-0.9s0.4-0.6,0.6-0.9l0.7-0.9
	c0.2-0.3,0.5-0.6,0.7-0.8l0.8-0.8c0.3-0.3,0.5-0.5,0.8-0.8s0.6-0.5,0.8-0.7S8.7,75,9,74.8s0.6-0.4,0.9-0.6s0.6-0.4,0.9-0.6
	s0.6-0.4,1-0.5s0.6-0.3,1-0.5s0.7-0.3,1-0.4s0.7-0.3,1-0.4s0.7-0.2,1-0.3s0.7-0.2,1.1-0.3l1.1-0.3l1-0.2c0.4,0,0.7-0.1,1.1-0.1
	s0.7-0.1,1.1-0.1c0.7,0,1.5,0,2.2,0c0.4,0,0.7,0,1.1,0.1s0.7,0.1,1.1,0.1l1.1,0.2l1.1,0.3c0.4,0.1,0.7,0.2,1,0.3s0.7,0.2,1,0.3
	l1,0.4c0.3,0.1,0.7,0.3,1,0.4s0.7,0.3,1,0.5s0.6,0.3,1,0.5s0.6,0.4,0.9,0.6s0.6,0.4,0.9,0.6s0.6,0.4,0.9,0.7s0.6,0.5,0.8,0.7
	s0.5,0.5,0.8,0.8s0.5,0.5,0.8,0.8s0.5,0.6,0.7,0.8l0.7,0.9c0.2,0.3,0.4,0.6,0.6,0.9c0.2,0.3,0.4,0.6,0.6,0.9s0.4,0.6,0.5,1
	s0.3,0.7,0.5,1s0.3,0.7,0.4,1s0.3,0.7,0.4,1s0.2,0.7,0.3,1s0.2,0.7,0.3,1.1s0.2,0.7,0.3,1.1s0.1,0.7,0.2,1.1s0.1,0.7,0.1,1.1
	s0.1,0.7,0.1,1.1s0,0.7,0,1.1s0,0.7,0,1.1s0,0.7-0.1,1.1s-0.1,0.7-0.1,1.1s-0.1,0.7-0.2,1.1s-0.2,0.7-0.3,1.1s-0.2,0.7-0.3,1
	s-0.2,0.7-0.3,1s-0.3,0.7-0.4,1s-0.3,0.7-0.4,1s-0.3,0.7-0.5,1s-0.3,0.6-0.5,1s-0.4,0.6-0.6,0.9l-0.6,0.9l-0.7,0.9
	c-0.2,0.3-0.5,0.6-0.7,0.8s-0.5,0.5-0.8,0.8s-0.5,0.5-0.8,0.8l-0.8,0.7c-0.3,0.2-0.6,0.5-0.9,0.7s-0.6,0.4-0.9,0.6s-0.6,0.4-0.9,0.6
	s-0.6,0.4-1,0.5s-0.7,0.3-1,0.5s-0.7,0.3-1,0.4l-1,0.4l-1,0.3l-1,0.3c-0.4,0.1-0.7,0.2-1.1,0.2s-0.7,0.1-1.1,0.2s-0.7,0.1-1.1,0.1
	s-0.7,0.1-1.1,0.1L22.3,115z"/>
<path class="st2" d="M421,115H312.8c-12.3,0-22.3-10-22.3-22.3s10-22.3,22.3-22.3H421c12.3,0,22.3,10,22.3,22.3S433.3,115,421,115z"
	/>
<path class="st3" d="M251.4,115h-1.1c-0.4,0-0.7,0-1.1-0.1s-0.7-0.1-1.1-0.1s-0.7-0.1-1.1-0.2s-0.7-0.2-1.1-0.2l-1-0.3l-1-0.3
	l-1-0.4c-0.3-0.1-0.7-0.3-1-0.4s-0.7-0.3-1-0.5s-0.6-0.3-1-0.5s-0.6-0.4-0.9-0.6s-0.6-0.4-0.9-0.6s-0.6-0.4-0.9-0.7l-0.8-0.7
	c-0.3-0.3-0.5-0.5-0.8-0.8s-0.5-0.5-0.8-0.8s-0.5-0.5-0.7-0.8s-0.4-0.6-0.7-0.9s-0.4-0.6-0.6-0.9s-0.4-0.6-0.6-0.9s-0.4-0.6-0.5-1
	s-0.3-0.7-0.5-1s-0.3-0.7-0.4-1s-0.3-0.7-0.4-1s-0.2-0.7-0.4-1s-0.2-0.7-0.3-1s-0.2-0.7-0.2-1.1s-0.1-0.7-0.2-1.1s-0.1-0.7-0.1-1.1
	s-0.1-0.7-0.1-1.1s0-0.7,0-1.1s0-0.7,0-1.1s0-0.7,0.1-1.1s0.1-0.7,0.1-1.1s0.1-0.7,0.2-1.1s0.1-0.7,0.2-1.1s0.2-0.7,0.3-1.1
	s0.2-0.7,0.4-1s0.3-0.7,0.4-1s0.3-0.7,0.4-1s0.3-0.7,0.5-1s0.4-0.6,0.5-1s0.4-0.6,0.6-0.9s0.4-0.6,0.6-0.9s0.4-0.6,0.7-0.9
	s0.5-0.6,0.7-0.8s0.5-0.5,0.8-0.8s0.5-0.5,0.8-0.8s0.6-0.5,0.8-0.7s0.6-0.5,0.9-0.7s0.6-0.4,0.9-0.6s0.6-0.4,0.9-0.6s0.6-0.4,1-0.5
	s0.6-0.3,1-0.5s0.7-0.3,1-0.4l1-0.4c0.4-0.1,0.7-0.2,1-0.3s0.7-0.2,1-0.3l1.1-0.3l1.1-0.2c0.4,0,0.7-0.1,1.1-0.1s0.7-0.1,1.1-0.1
	c0.7,0,1.5,0,2.2,0c0.4,0,0.7,0,1.1,0.1s0.7,0.1,1.1,0.1l1.1,0.2l1.1,0.3c0.4,0.1,0.7,0.2,1,0.3s0.7,0.2,1,0.3s0.7,0.3,1,0.4
	s0.7,0.3,1,0.4l1,0.5c0.3,0.2,0.6,0.3,1,0.5s0.6,0.4,0.9,0.6s0.6,0.4,0.9,0.6s0.6,0.4,0.9,0.7s0.6,0.5,0.8,0.7s0.5,0.5,0.8,0.8
	l0.8,0.8c0.2,0.3,0.5,0.5,0.7,0.8c0.2,0.3,0.5,0.6,0.7,0.9s0.4,0.6,0.6,0.9s0.4,0.6,0.6,0.9s0.4,0.6,0.5,1l0.5,1
	c0.1,0.3,0.3,0.7,0.4,1s0.3,0.7,0.4,1s0.2,0.7,0.3,1s0.2,0.7,0.3,1.1s0.2,0.7,0.2,1.1s0.1,0.7,0.2,1.1s0.1,0.7,0.1,1.1
	s0.1,0.7,0.1,1.1s0,0.7,0,1.1s0,0.7,0,1.1s0,0.7-0.1,1.1s-0.1,0.7-0.1,1.1s-0.1,0.7-0.2,1.1s-0.1,0.7-0.2,1.1s-0.2,0.7-0.3,1
	s-0.2,0.7-0.3,1s-0.3,0.7-0.4,1s-0.3,0.7-0.4,1l-0.5,1c-0.2,0.3-0.4,0.6-0.5,1s-0.4,0.6-0.6,0.9s-0.4,0.6-0.6,0.9s-0.4,0.6-0.7,0.9
	s-0.5,0.6-0.7,0.8s-0.5,0.5-0.8,0.8s-0.5,0.5-0.8,0.8l-0.8,0.7c-0.3,0.2-0.6,0.5-0.9,0.7s-0.6,0.4-0.9,0.6s-0.6,0.4-0.9,0.6
	s-0.6,0.4-1,0.5s-0.6,0.3-1,0.5s-0.7,0.3-1,0.4s-0.7,0.3-1,0.4l-1,0.3l-1,0.3c-0.4,0.1-0.7,0.2-1.1,0.2s-0.7,0.1-1.1,0.2
	s-0.7,0.1-1.1,0.1s-0.7,0.1-1.1,0.1S251.8,115,251.4,115z"/>
<path class="st3" d="M160.7,184.2H83.1c-12.3,0-22.3-10-22.3-22.3c0-12.3,10-22.3,22.3-22.3l0,0h77.6c12.3,0,22.3,10,22.3,22.3
	C183,174.2,173,184.2,160.7,184.2z"/>
<path class="st0" d="M222,184.2c-0.4,0-0.7,0-1.1,0l-1.1-0.1c-0.4,0-0.7-0.1-1.1-0.1s-0.7-0.1-1.1-0.2s-0.7-0.1-1.1-0.2l-1.1-0.3
	l-1-0.3l-1-0.4l-1-0.4l-1-0.5c-0.3-0.2-0.6-0.4-0.9-0.5s-0.6-0.4-0.9-0.6s-0.6-0.4-0.9-0.6s-0.6-0.4-0.9-0.7l-0.8-0.7l-0.8-0.8
	c-0.3-0.3-0.5-0.5-0.8-0.8s-0.5-0.6-0.7-0.8s-0.5-0.6-0.7-0.9s-0.4-0.6-0.6-0.9s-0.4-0.6-0.6-0.9s-0.4-0.6-0.5-1s-0.3-0.6-0.5-1
	s-0.3-0.7-0.4-1s-0.3-0.7-0.4-1s-0.2-0.7-0.3-1s-0.2-0.7-0.3-1.1s-0.2-0.7-0.3-1.1s-0.1-0.7-0.2-1.1s-0.1-0.7-0.1-1.1
	s-0.1-0.7-0.1-1.1s0-0.7,0-1.1s0-0.7,0-1.1s0-0.7,0.1-1.1s0.1-0.7,0.1-1.1s0.1-0.7,0.2-1.1s0.2-0.7,0.3-1.1s0.2-0.7,0.3-1
	s0.2-0.7,0.3-1s0.3-0.7,0.4-1s0.3-0.7,0.4-1s0.3-0.6,0.5-1s0.4-0.6,0.5-0.9s0.4-0.6,0.6-0.9s0.4-0.6,0.6-0.9s0.4-0.6,0.7-0.9
	s0.5-0.6,0.7-0.8l0.8-0.8c0.3-0.3,0.5-0.5,0.8-0.8s0.6-0.5,0.8-0.7s0.6-0.5,0.9-0.7s0.6-0.4,0.9-0.6s0.6-0.4,0.9-0.6
	s0.6-0.4,0.9-0.5s0.6-0.3,1-0.5s0.7-0.3,1-0.4l1-0.4c0.3-0.1,0.7-0.2,1-0.3s0.7-0.2,1.1-0.3l1.1-0.2l1.1-0.2
	c0.4-0.1,0.7-0.1,1.1-0.1s0.7-0.1,1.1-0.1c0.7,0,1.5,0,2.2,0c0.4,0,0.7,0,1.1,0.1s0.7,0.1,1.1,0.1l1.1,0.2c0.4,0.1,0.7,0.1,1.1,0.2
	s0.7,0.2,1.1,0.3s0.7,0.2,1,0.3l1,0.4c0.3,0.1,0.7,0.3,1,0.4s0.7,0.3,1,0.5s0.6,0.4,1,0.5s0.6,0.4,0.9,0.6s0.6,0.4,0.9,0.6
	s0.6,0.4,0.9,0.7s0.6,0.5,0.8,0.7s0.5,0.5,0.8,0.8s0.5,0.5,0.8,0.8s0.5,0.6,0.7,0.8s0.5,0.6,0.7,0.9s0.4,0.6,0.6,0.9
	s0.4,0.6,0.6,0.9s0.4,0.6,0.5,0.9s0.3,0.7,0.5,1s0.3,0.7,0.4,1s0.3,0.7,0.4,1s0.2,0.7,0.4,1s0.2,0.7,0.3,1s0.2,0.7,0.2,1.1
	s0.1,0.7,0.2,1.1s0.1,0.7,0.1,1.1s0.1,0.7,0.1,1.1s0,0.7,0,1.1s0,0.7,0,1.1s-0.1,0.7-0.1,1.1s-0.1,0.7-0.1,1.1s-0.1,0.7-0.2,1.1
	s-0.1,0.7-0.2,1.1s-0.2,0.7-0.3,1.1s-0.2,0.7-0.4,1s-0.3,0.7-0.4,1s-0.3,0.7-0.4,1s-0.3,0.6-0.5,1s-0.4,0.6-0.5,1s-0.4,0.6-0.6,0.9
	s-0.4,0.6-0.6,0.9s-0.4,0.6-0.7,0.9s-0.5,0.6-0.7,0.8s-0.5,0.5-0.8,0.8s-0.5,0.5-0.8,0.8l-0.8,0.7c-0.3,0.2-0.6,0.4-0.9,0.7
	s-0.6,0.4-0.9,0.6s-0.6,0.4-0.9,0.6s-0.6,0.4-1,0.5s-0.6,0.3-1,0.5l-1,0.4c-0.3,0.1-0.7,0.3-1,0.4l-1,0.3l-1.1,0.3
	c-0.4,0.1-0.7,0.2-1.1,0.2s-0.7,0.1-1.1,0.2s-0.7,0.1-1.1,0.1l-1.1,0.1C222.8,184.2,222.4,184.2,222,184.2z"/>
<path class="st4" d="M360,184.2h-77.6c-12.3,0-22.3-10-22.3-22.3c0-12.3,10-22.3,22.3-22.3H360c12.3,0,22.3,10,22.3,22.3
	S372.4,184.2,360,184.2z"/>
<path class="st3" d="M421,184.2h-1.1l-1.1-0.1c-0.4,0-0.7-0.1-1.1-0.1s-0.7-0.1-1.1-0.2s-0.7-0.1-1.1-0.2l-1-0.3l-1-0.3
	c-0.3-0.1-0.7-0.3-1-0.4l-1-0.4c-0.3-0.2-0.7-0.3-1-0.5s-0.6-0.4-1-0.5s-0.6-0.4-0.9-0.6s-0.6-0.4-0.9-0.6l-0.9-0.7l-0.8-0.7
	c-0.3-0.3-0.5-0.5-0.8-0.8s-0.5-0.5-0.8-0.8s-0.5-0.6-0.7-0.8s-0.5-0.6-0.7-0.9s-0.4-0.6-0.6-0.9s-0.4-0.6-0.6-0.9s-0.4-0.6-0.5-1
	s-0.3-0.6-0.5-1s-0.3-0.7-0.4-1s-0.3-0.7-0.4-1s-0.2-0.7-0.3-1s-0.2-0.7-0.3-1.1s-0.2-0.7-0.2-1.1s-0.1-0.7-0.2-1.1
	s-0.1-0.7-0.1-1.1s-0.1-0.7-0.1-1.1s0-0.7,0-1.1s0-0.7,0-1.1s0-0.7,0.1-1.1s0.1-0.7,0.1-1.1s0.1-0.7,0.2-1.1s0.1-0.7,0.2-1.1
	s0.2-0.7,0.3-1s0.2-0.7,0.3-1s0.3-0.7,0.4-1s0.3-0.7,0.4-1s0.3-0.6,0.5-1s0.4-0.6,0.5-0.9s0.4-0.6,0.6-0.9s0.4-0.6,0.6-0.9
	s0.4-0.6,0.7-0.9s0.5-0.6,0.7-0.8s0.5-0.5,0.8-0.8s0.5-0.5,0.8-0.8s0.6-0.5,0.8-0.7s0.6-0.5,0.9-0.7s0.6-0.4,0.9-0.6
	s0.6-0.4,0.9-0.6s0.6-0.4,1-0.5s0.6-0.3,1-0.5s0.7-0.3,1-0.4l1-0.4c0.3-0.1,0.7-0.2,1-0.3s0.7-0.2,1-0.3s0.7-0.2,1.1-0.2l1.1-0.2
	c0.4-0.1,0.7-0.1,1.1-0.1s0.7-0.1,1.1-0.1c0.7,0,1.5,0,2.2,0c0.4,0,0.7,0,1.1,0.1s0.7,0.1,1.1,0.1l1.1,0.2c0.4,0.1,0.7,0.1,1.1,0.2
	s0.7,0.2,1,0.3s0.7,0.2,1,0.3l1,0.4c0.3,0.1,0.7,0.3,1,0.4l1,0.5c0.3,0.2,0.6,0.4,1,0.5s0.6,0.4,0.9,0.6s0.6,0.4,0.9,0.6
	s0.6,0.4,0.9,0.7s0.6,0.5,0.8,0.7s0.5,0.5,0.8,0.8l0.8,0.8c0.2,0.3,0.5,0.6,0.7,0.8s0.5,0.6,0.7,0.9s0.4,0.6,0.6,0.9
	s0.4,0.6,0.6,0.9s0.4,0.6,0.5,0.9s0.3,0.7,0.5,1s0.3,0.7,0.5,1s0.3,0.7,0.4,1s0.2,0.7,0.3,1s0.2,0.7,0.3,1s0.2,0.7,0.2,1.1
	s0.1,0.7,0.2,1.1s0.1,0.7,0.1,1.1s0.1,0.7,0.1,1.1s0,0.7,0,1.1s0,0.7,0,1.1s0,0.7-0.1,1.1s-0.1,0.7-0.1,1.1s-0.1,0.7-0.2,1.1
	s-0.1,0.7-0.2,1.1s-0.2,0.7-0.3,1.1s-0.2,0.7-0.3,1s-0.3,0.7-0.4,1s-0.3,0.7-0.5,1s-0.3,0.6-0.5,1s-0.4,0.6-0.5,1s-0.4,0.6-0.6,0.9
	l-0.6,0.9c-0.2,0.3-0.4,0.6-0.7,0.9s-0.5,0.6-0.7,0.8s-0.5,0.5-0.8,0.8s-0.5,0.5-0.8,0.8l-0.8,0.7c-0.3,0.2-0.6,0.4-0.9,0.7
	s-0.6,0.4-0.9,0.6s-0.6,0.4-0.9,0.6s-0.6,0.4-1,0.5l-1,0.5l-1,0.4l-1,0.4l-1,0.3l-1,0.3c-0.4,0.1-0.7,0.2-1.1,0.2s-0.7,0.1-1.1,0.2
	s-0.7,0.1-1.1,0.1l-1.1,0.1C421.8,184.2,421.4,184.2,421,184.2z"/>
<path class="st2" d="M22.4,184.2c-0.4,0-0.7,0-1.1,0l-1.1-0.1c-0.4,0-0.7-0.1-1.1-0.1s-0.7-0.1-1.1-0.2s-0.7-0.1-1.1-0.2l-1.1-0.3
	l-1-0.3c-0.3-0.1-0.7-0.3-1-0.4l-1-0.4l-1-0.5c-0.3-0.2-0.6-0.4-0.9-0.5l-0.9-0.6c-0.3-0.2-0.6-0.4-0.9-0.6l-0.9-0.7l-0.8-0.7
	c-0.3-0.3-0.5-0.5-0.8-0.8s-0.5-0.5-0.8-0.8s-0.5-0.6-0.7-0.8l-0.7-0.9l-0.6-0.9c-0.2-0.3-0.4-0.6-0.6-0.9l-0.5-1l-0.5-1
	c-0.2-0.3-0.3-0.7-0.4-1s-0.3-0.7-0.4-1s-0.2-0.7-0.3-1s-0.2-0.7-0.3-1.1s-0.2-0.7-0.2-1.1s-0.1-0.7-0.2-1.1s-0.1-0.7-0.1-1.1
	s-0.1-0.7-0.1-1.1s0-0.7,0-1.1s0-0.7,0-1.1s0-0.7,0.1-1.1s0.1-0.7,0.1-1.1s0.1-0.7,0.2-1.1s0.1-0.7,0.2-1.1s0.2-0.7,0.3-1
	s0.2-0.7,0.3-1s0.3-0.7,0.4-1s0.3-0.7,0.4-1l0.5-1c0.2-0.3,0.4-0.6,0.5-0.9s0.4-0.6,0.6-0.9s0.4-0.6,0.6-0.9l0.7-0.9l0.7-0.8
	l0.8-0.8c0.3-0.3,0.5-0.5,0.8-0.8s0.6-0.5,0.8-0.7s0.6-0.5,0.9-0.7s0.6-0.4,0.9-0.6s0.6-0.4,0.9-0.6s0.6-0.4,0.9-0.5s0.6-0.3,1-0.5
	s0.7-0.3,1-0.4l1-0.4c0.3-0.1,0.7-0.2,1-0.3c0.3-0.1,0.7-0.2,1.1-0.3s0.7-0.2,1.1-0.2l1.1-0.2c0.4-0.1,0.7-0.1,1.1-0.1
	s0.7-0.1,1.1-0.1c0.7,0,1.5,0,2.2,0c0.4,0,0.7,0,1.1,0.1s0.7,0.1,1.1,0.1l1.1,0.2c0.4,0.1,0.7,0.1,1.1,0.2s0.7,0.2,1,0.3
	s0.7,0.2,1,0.3l1,0.4c0.3,0.1,0.7,0.3,1,0.4c0.3,0.2,0.6,0.3,1,0.5s0.7,0.4,1,0.5s0.6,0.4,0.9,0.6s0.6,0.4,0.9,0.6s0.6,0.4,0.9,0.7
	s0.6,0.5,0.8,0.7s0.5,0.5,0.8,0.8s0.5,0.5,0.8,0.8s0.5,0.6,0.7,0.8s0.5,0.6,0.7,0.9s0.4,0.6,0.6,0.9s0.4,0.6,0.6,0.9
	s0.4,0.6,0.5,0.9s0.3,0.7,0.5,1s0.3,0.7,0.4,1s0.3,0.7,0.4,1s0.2,0.7,0.3,1s0.2,0.7,0.3,1s0.2,0.7,0.2,1.1s0.1,0.7,0.2,1.1
	s0.1,0.7,0.1,1.1s0.1,0.7,0.1,1.1s0,0.7,0,1.1s0,0.7,0,1.1s0,0.7-0.1,1.1s-0.1,0.7-0.1,1.1s-0.1,0.7-0.2,1.1s-0.2,0.7-0.2,1.1
	s-0.2,0.7-0.3,1.1s-0.2,0.7-0.3,1s-0.3,0.7-0.4,1s-0.3,0.7-0.4,1s-0.3,0.6-0.5,1s-0.3,0.6-0.5,1s-0.4,0.6-0.6,0.9s-0.4,0.6-0.6,0.9
	s-0.4,0.6-0.7,0.9s-0.5,0.6-0.7,0.8s-0.5,0.5-0.8,0.8s-0.5,0.5-0.8,0.8l-0.8,0.7c-0.3,0.2-0.6,0.4-0.9,0.7s-0.6,0.4-0.9,0.6
	s-0.6,0.4-0.9,0.6s-0.6,0.4-1,0.5l-1,0.5l-1,0.4l-1,0.4l-1,0.3l-1,0.3c-0.4,0.1-0.7,0.2-1.1,0.2s-0.7,0.1-1.1,0.2s-0.7,0.1-1.1,0.1
	l-1.1,0.1L22.4,184.2z"/>
<path class="st1" d="M222,45.9h-77.5c-12.3,0-22.3-10-22.3-22.3s10-22.3,22.3-22.3H222c12.3,0,22.3,10,22.3,22.3
	S234.3,45.9,222,45.9z"/>
<path class="st0" d="M360,45.9h-77.6c-12.3,0-22.3-10-22.3-22.3s10-22.3,22.3-22.3H360c12.3,0,22.3,10,22.3,22.3
	S372.4,45.9,360,45.9z"/>
<path class="st4" d="M83.1,45.9c-0.4,0-0.7,0-1.1,0s-0.7,0-1.1-0.1s-0.7-0.1-1.1-0.1s-0.7-0.1-1.1-0.2s-0.7-0.2-1.1-0.2L76.6,45
	c-0.3-0.1-0.7-0.2-1-0.3s-0.7-0.3-1-0.4l-1-0.4c-0.3-0.2-0.7-0.3-1-0.5S72,43,71.7,42.8s-0.6-0.4-0.9-0.6s-0.6-0.4-0.9-0.6L69,40.9
	c-0.3-0.2-0.6-0.5-0.8-0.7s-0.5-0.5-0.8-0.8s-0.5-0.5-0.8-0.8l-0.7-0.8c-0.2-0.3-0.4-0.6-0.7-0.9s-0.4-0.6-0.6-0.9s-0.4-0.6-0.6-0.9
	l-0.5-1l-0.5-1c-0.2-0.3-0.3-0.7-0.4-1s-0.3-0.7-0.4-1s-0.2-0.7-0.3-1s-0.2-0.7-0.3-1s-0.2-0.7-0.2-1.1s-0.1-0.7-0.2-1.1
	s-0.1-0.7-0.1-1.1s-0.1-0.7-0.1-1.1s0-0.7,0-1.1s0-0.7,0-1.1s0-0.7,0.1-1.1s0.1-0.7,0.1-1.1s0.1-0.7,0.2-1.1s0.2-0.7,0.2-1.1
	s0.2-0.7,0.3-1s0.2-0.7,0.3-1s0.3-0.7,0.4-1s0.3-0.7,0.4-1s0.3-0.7,0.5-1l0.5-1c0.2-0.3,0.4-0.6,0.6-0.9s0.4-0.6,0.6-0.9
	s0.4-0.6,0.7-0.9l0.7-0.8c0.3-0.3,0.5-0.5,0.8-0.8s0.5-0.5,0.8-0.8s0.6-0.5,0.8-0.7l0.9-0.7c0.3-0.2,0.6-0.4,0.9-0.6
	s0.6-0.4,0.9-0.6s0.6-0.4,0.9-0.5s0.7-0.3,1-0.5l1-0.4c0.3-0.1,0.7-0.3,1-0.4s0.7-0.2,1-0.3s0.7-0.2,1.1-0.3s0.7-0.2,1.1-0.2
	s0.7-0.1,1.1-0.2s0.7-0.1,1.1-0.1L82,1.3c0.7,0,1.5,0,2.2,0c0.4,0,0.7,0,1.1,0.1s0.7,0.1,1.1,0.1s0.7,0.1,1.1,0.2L88.6,2
	c0.3,0.1,0.7,0.2,1,0.3s0.7,0.2,1,0.3s0.7,0.3,1,0.4l1,0.4c0.3,0.2,0.7,0.3,1,0.5c0.3,0.2,0.6,0.4,1,0.5s0.6,0.4,0.9,0.6
	s0.6,0.4,0.9,0.6s0.6,0.4,0.9,0.7s0.6,0.5,0.8,0.7s0.5,0.5,0.8,0.8s0.5,0.5,0.8,0.8s0.5,0.6,0.7,0.8l0.7,0.9
	c0.2,0.3,0.4,0.6,0.6,0.9s0.4,0.6,0.6,0.9s0.4,0.6,0.5,1s0.3,0.6,0.5,1s0.3,0.7,0.4,1s0.3,0.7,0.4,1s0.2,0.7,0.3,1s0.2,0.7,0.3,1
	s0.2,0.7,0.3,1.1s0.1,0.7,0.2,1.1s0.1,0.7,0.1,1.1s0.1,0.7,0.1,1.1s0,0.7,0,1.1s0,0.7,0,1.1s0,0.7-0.1,1.1s-0.1,0.7-0.1,1.1
	s-0.1,0.7-0.2,1.1s-0.2,0.7-0.3,1.1s-0.2,0.7-0.3,1s-0.2,0.7-0.3,1s-0.3,0.7-0.4,1c-0.1,0.3-0.3,0.7-0.4,1s-0.3,0.7-0.5,1
	s-0.3,0.6-0.5,1s-0.4,0.6-0.6,0.9s-0.4,0.6-0.6,0.9l-0.7,0.9l-0.7,0.8c-0.2,0.3-0.5,0.5-0.8,0.8s-0.5,0.5-0.8,0.8l-0.8,0.7
	c-0.3,0.2-0.6,0.5-0.9,0.7s-0.6,0.4-0.9,0.6s-0.6,0.4-0.9,0.6s-0.6,0.4-1,0.5s-0.7,0.3-1,0.5l-1,0.4c-0.3,0.1-0.7,0.3-1,0.4
	s-0.7,0.2-1,0.3l-1,0.3l-1.1,0.2c-0.4,0.1-0.7,0.1-1.1,0.2s-0.7,0.1-1.1,0.1s-0.7,0.1-1.1,0.1L83.1,45.9z"/>
<path class="st5" d="M421,45.9h-1.1c-0.4,0-0.7,0-1.1-0.1s-0.7-0.1-1.1-0.1s-0.7-0.1-1.1-0.2s-0.7-0.2-1.1-0.2l-1-0.3
	c-0.4-0.1-0.7-0.2-1-0.3s-0.7-0.3-1-0.4l-1-0.4c-0.3-0.2-0.6-0.3-1-0.5s-0.6-0.3-1-0.5s-0.6-0.4-0.9-0.6s-0.6-0.4-0.9-0.6l-0.9-0.7
	c-0.3-0.2-0.6-0.5-0.8-0.7s-0.5-0.5-0.8-0.8s-0.5-0.5-0.8-0.8l-0.7-0.8l-0.7-0.9c-0.2-0.3-0.4-0.6-0.6-0.9s-0.4-0.6-0.6-0.9
	s-0.4-0.6-0.5-1s-0.3-0.7-0.5-1s-0.3-0.7-0.4-1s-0.3-0.7-0.4-1s-0.2-0.7-0.4-1s-0.2-0.7-0.3-1s-0.2-0.7-0.2-1.1s-0.1-0.7-0.2-1.1
	s-0.1-0.7-0.1-1.1s-0.1-0.7-0.1-1.1s0-0.7,0-1.1s0-0.7,0-1.1s0-0.7,0.1-1.1s0.1-0.7,0.1-1.1s0.1-0.7,0.2-1.1s0.1-0.7,0.2-1.1
	s0.2-0.7,0.3-1s0.2-0.7,0.4-1s0.3-0.7,0.4-1s0.3-0.7,0.4-1s0.3-0.7,0.5-1s0.4-0.6,0.5-1s0.4-0.6,0.6-0.9s0.4-0.6,0.6-0.9l0.7-0.9
	c0.2-0.3,0.5-0.6,0.7-0.8s0.5-0.5,0.8-0.8s0.5-0.5,0.8-0.8s0.6-0.5,0.8-0.7l0.9-0.7c0.3-0.2,0.6-0.4,0.9-0.6s0.6-0.4,0.9-0.6
	s0.6-0.4,1-0.5s0.6-0.3,1-0.5l1-0.4c0.3-0.1,0.7-0.3,1-0.4s0.7-0.2,1-0.3s0.7-0.2,1-0.3s0.7-0.2,1.1-0.2s0.7-0.1,1.1-0.2
	s0.7-0.1,1.1-0.1s0.7-0.1,1.1-0.1c0.7,0,1.5,0,2.2,0l1.1,0.1c0.4,0,0.7,0.1,1.1,0.1s0.7,0.1,1.1,0.2s0.7,0.1,1.1,0.2
	c0.4,0.1,0.7,0.2,1,0.3s0.7,0.2,1,0.3s0.7,0.3,1,0.4l1,0.4l1,0.5c0.3,0.2,0.6,0.4,1,0.5s0.6,0.4,0.9,0.6s0.6,0.4,0.9,0.6l0.9,0.7
	c0.3,0.2,0.6,0.5,0.8,0.7s0.5,0.5,0.8,0.8s0.5,0.5,0.8,0.8s0.5,0.6,0.7,0.8s0.5,0.6,0.7,0.9s0.4,0.6,0.6,0.9s0.4,0.6,0.6,0.9
	s0.4,0.6,0.5,1s0.3,0.6,0.5,1s0.3,0.7,0.5,1s0.3,0.7,0.4,1s0.2,0.7,0.3,1s0.2,0.7,0.3,1s0.2,0.7,0.2,1.1s0.1,0.7,0.2,1.1
	s0.1,0.7,0.1,1.1s0.1,0.7,0.1,1.1s0,0.7,0,1.1s0,0.7,0,1.1s0,0.7-0.1,1.1s-0.1,0.7-0.1,1.1s-0.1,0.7-0.2,1.1s-0.1,0.7-0.2,1.1
	s-0.2,0.7-0.3,1s-0.2,0.7-0.3,1s-0.3,0.7-0.4,1s-0.3,0.7-0.5,1s-0.3,0.7-0.5,1s-0.4,0.6-0.5,1s-0.4,0.6-0.6,0.9s-0.4,0.6-0.6,0.9
	s-0.4,0.6-0.7,0.9l-0.7,0.8c-0.3,0.3-0.5,0.5-0.8,0.8s-0.5,0.5-0.8,0.8s-0.5,0.5-0.8,0.7l-0.9,0.7c-0.3,0.2-0.6,0.4-0.9,0.6
	c-0.3,0.2-0.6,0.4-0.9,0.6s-0.6,0.4-1,0.5l-1,0.5l-1,0.4c-0.3,0.1-0.7,0.3-1,0.4c-0.3,0.1-0.7,0.2-1,0.3l-1,0.3
	c-0.4,0.1-0.7,0.2-1.1,0.2s-0.7,0.1-1.1,0.2s-0.7,0.1-1.1,0.1s-0.7,0.1-1.1,0.1S421.4,45.9,421,45.9z"/>
<path class="st6" d="M22.4,45.9c-0.4,0-0.7,0-1.1,0s-0.7,0-1.1-0.1s-0.7-0.1-1.1-0.1s-0.7-0.1-1.1-0.2s-0.7-0.2-1.1-0.2L15.9,45
	c-0.3-0.1-0.7-0.2-1-0.3s-0.7-0.3-1-0.4l-1-0.4c-0.3-0.2-0.7-0.3-1-0.5s-0.6-0.3-0.9-0.5s-0.6-0.4-0.9-0.6s-0.6-0.4-0.9-0.6
	l-0.9-0.7c-0.3-0.2-0.6-0.5-0.8-0.7s-0.5-0.5-0.8-0.8s-0.5-0.5-0.8-0.8l-0.7-0.8l-0.7-0.9L3.8,36c-0.2-0.3-0.4-0.6-0.6-0.9l-0.5-1
	l-0.5-1c-0.2-0.3-0.3-0.7-0.4-1s-0.3-0.7-0.4-1s-0.2-0.7-0.3-1s-0.2-0.7-0.3-1S0.6,28.3,0.5,28s-0.1-0.7-0.2-1.1s-0.1-0.7-0.1-1.1
	s-0.1-0.7-0.1-1.1s0-0.7,0-1.1s0-0.7,0-1.1s0-0.7,0.1-1.1s0.1-0.7,0.1-1.1s0.1-0.7,0.2-1.1s0.1-0.7,0.2-1.1s0.2-0.7,0.3-1
	s0.2-0.7,0.3-1s0.3-0.7,0.4-1s0.3-0.7,0.4-1s0.3-0.7,0.5-1l0.5-1c0.2-0.3,0.4-0.6,0.6-0.9s0.4-0.6,0.6-0.9l0.7-0.9l0.7-0.8
	c0.3-0.3,0.5-0.5,0.8-0.8s0.5-0.5,0.8-0.8s0.6-0.5,0.8-0.7l0.9-0.7C9.4,5.5,9.7,5.2,10,5s0.6-0.4,0.9-0.6s0.6-0.4,0.9-0.5
	s0.6-0.3,1-0.5l1-0.4c0.3-0.1,0.7-0.3,1-0.4s0.7-0.2,1-0.3C16.2,2.1,16.6,2.1,17,2s0.7-0.2,1.1-0.2s0.7-0.1,1.1-0.2s0.7-0.1,1.1-0.1
	l1.1-0.1c0.7,0,1.5,0,2.2,0c0.4,0,0.7,0,1.1,0.1s0.7,0.1,1.1,0.1s0.7,0.1,1.1,0.2s0.7,0.1,1.1,0.2c0.4,0.1,0.7,0.2,1,0.3
	s0.7,0.2,1,0.3s0.7,0.3,1,0.4l1,0.4c0.3,0.2,0.7,0.3,1,0.5c0.3,0.2,0.7,0.4,1,0.5s0.6,0.4,0.9,0.6s0.6,0.4,0.9,0.6s0.6,0.4,0.9,0.7
	s0.6,0.5,0.8,0.7s0.5,0.5,0.8,0.8s0.5,0.5,0.8,0.8s0.5,0.6,0.7,0.8l0.7,0.9c0.2,0.3,0.4,0.6,0.6,0.9s0.4,0.6,0.6,0.9s0.4,0.6,0.5,1
	s0.3,0.6,0.5,1s0.3,0.7,0.4,1s0.3,0.7,0.4,1s0.2,0.7,0.3,1s0.2,0.7,0.3,1s0.2,0.7,0.2,1.1s0.1,0.7,0.2,1.1s0.1,0.7,0.1,1.1
	s0.1,0.7,0.1,1.1s0,0.7,0,1.1s0,0.7,0,1.1s0,0.7-0.1,1.1s-0.1,0.7-0.1,1.1s-0.1,0.7-0.2,1.1s-0.2,0.7-0.2,1.1s-0.2,0.7-0.3,1
	s-0.2,0.7-0.3,1s-0.3,0.7-0.4,1c-0.1,0.3-0.3,0.7-0.4,1s-0.3,0.7-0.5,1s-0.3,0.6-0.5,1S41.2,35.7,41,36s-0.4,0.6-0.6,0.9l-0.7,0.9
	L39,38.6c-0.2,0.3-0.5,0.5-0.8,0.8s-0.5,0.5-0.8,0.8s-0.6,0.5-0.8,0.7s-0.6,0.5-0.9,0.7s-0.6,0.4-0.9,0.6s-0.6,0.4-0.9,0.6
	s-0.6,0.4-1,0.5s-0.7,0.3-1,0.5l-1,0.4c-0.3,0.1-0.7,0.3-1,0.4s-0.7,0.2-1,0.3l-1,0.3c-0.4,0.1-0.7,0.2-1.1,0.2s-0.7,0.1-1.1,0.2
	s-0.7,0.1-1.1,0.1s-0.7,0.1-1.1,0.1L22.4,45.9z"/>
<path class="st4" d="M674.5,35.5L651,57.9c-16-16.9-34-25.4-54-25.4c-16.9,0-31.1,5.8-42.7,17.3S537,75.6,537,92.5
	c0,11.8,2.6,22.2,7.7,31.4c5.1,9.1,12.6,16.5,21.7,21.5c9.5,5.3,20.3,7.9,31.2,7.8c9.2,0.1,18.3-1.8,26.8-5.5
	c8.1-3.6,17-10.3,26.6-19.9l22.8,23.8c-13,12.7-25.4,21.6-37,26.5c-11.6,4.9-24.9,7.4-39.8,7.4c-27.5,0-49.9-8.7-67.4-26.1
	c-17.5-17.4-26.2-39.7-26.2-66.9c0-17.6,4-33.3,11.9-47c8-13.7,19.4-24.7,34.2-33c14.6-8.3,31.2-12.6,48-12.5
	C627.1,0.1,655.2,13,674.5,35.5L674.5,35.5z"/>
<path class="st4" d="M687.8,0h32.8v181.1h-32.8V0z"/>
<path class="st4" d="M802.9,47.1c12.2,0,24.2,3.2,34.8,9.2c10.6,5.9,19.4,14.6,25.4,25.1c6,10.4,9.2,22.2,9.1,34.2
	c0,12.1-3.1,24.1-9.2,34.6c-5.9,10.5-14.5,19.2-25,25.1c-10.7,6.1-22.7,9.2-35,9.1c-18.7,0-34.7-6.7-48-20
	c-13.3-13.3-19.9-29.5-19.9-48.6c0-20.4,7.5-37.4,22.5-51C770.8,53,785.9,47.1,802.9,47.1z M803.5,77.9c-10.2,0-18.7,3.5-25.4,10.6
	c-6.8,7.1-10.2,16.1-10.2,27.2c0,11.4,3.3,20.6,10,27.6c6.7,7,15.1,10.6,25.4,10.6c10.3,0,18.8-3.6,25.6-10.7
	c6.8-7.1,10.2-16.3,10.2-27.5c0-11.2-3.3-20.3-10-27.3C822.5,81.4,813.9,77.9,803.5,77.9L803.5,77.9z"/>
<path class="st4" d="M969.9,68.7L949.6,89c-8.2-8.2-15.7-12.3-22.5-12.3c-3.7,0-6.6,0.8-8.6,2.3c-2,1.3-3.1,3.5-3.1,5.8
	c0,1.8,0.7,3.6,2,4.9c1.3,1.5,4.6,3.5,9.8,6.1l12,6c12.7,6.3,21.4,12.6,26.1,19.1c4.8,6.6,7.3,14.6,7.1,22.8
	c0.2,11.1-4.5,21.7-12.8,29.1c-8.5,7.8-19.9,11.6-34.3,11.6c-19.1,0-34.3-7.4-45.6-22.3l20.2-22c3.8,4.4,8.4,8.1,13.5,10.9
	c5.2,2.8,9.8,4.1,13.8,4.1c4.3,0,7.8-1,10.5-3.1c2.6-2.1,4-4.5,4-7.2c0-5-4.8-10-14.3-14.8l-11-5.5c-21.1-10.7-31.7-24-31.7-40
	c0-10.3,4-19.2,12-26.5s18.2-11,30.6-11C943.9,47,959.9,55,969.9,68.7L969.9,68.7z"/>
<path class="st4" d="M1050.6,47.1c12.2,0,24.2,3.2,34.8,9.2c10.6,5.9,19.4,14.6,25.4,25.1c6,10.4,9.2,22.2,9.1,34.2
	c0.1,12.1-3.1,24.1-9.2,34.6c-5.9,10.5-14.5,19.2-25,25.1c-10.6,6.1-22.7,9.2-34.9,9.1c-18.7,0-34.7-6.7-48-20
	c-13.3-13.3-19.9-29.5-19.9-48.6c0-20.4,7.5-37.4,22.5-51C1018.4,53,1033.5,47.1,1050.6,47.1z M1051.1,77.9
	c-10.2,0-18.7,3.5-25.4,10.6c-6.8,7.1-10.2,16.1-10.2,27.2c0,11.4,3.3,20.6,10,27.6c6.7,7,15.2,10.6,25.5,10.6
	c10.3,0,18.8-3.6,25.6-10.7c6.8-7.1,10.2-16.3,10.2-27.5c0-11.2-3.3-20.3-10-27.3C1070.2,81.4,1061.6,77.9,1051.1,77.9z"/>
<path class="st4" d="M1129.9,50.4h28.1v16.4c3-6.5,7.1-11.4,12.1-14.8c4.9-3.3,10.7-5,16.6-5c4.6,0.1,9.2,1.2,13.3,3.3l-10.2,28.2
	c-3.8-1.9-7-2.9-9.5-2.9c-5,0-9.3,3.1-12.8,9.4s-5.2,18.5-5.2,36.7l0.1,6.4v52.8h-32.5V50.4z"/>
</svg>
