<svg xmlns="http://www.w3.org/2000/svg" viewBox="0 0 484.3 426.86"><title>fav 512</title><path d="M207.43,351.24H91a24.38,24.38,0,1,1,0-48.76H207.43a24.38,24.38,0,0,1,0,48.76Z" style="fill:#34a853"></path><path d="M24.39,351.24c-.4,0-.81,0-1.2,0s-.8,0-1.2-.09-.8-.09-1.19-.15-.79-.13-1.18-.21-.78-.16-1.16-.26l-1.15-.32-1.14-.37c-.37-.14-.75-.28-1.11-.44s-.73-.31-1.09-.48l-1.07-.53-1-.59c-.34-.21-.68-.42-1-.64s-.66-.45-1-.69-.63-.48-.95-.73-.61-.52-.9-.78-.59-.55-.87-.83-.56-.57-.83-.87-.53-.6-.79-.91-.5-.63-.73-.94-.47-.66-.69-1-.43-.67-.64-1-.39-.68-.58-1-.37-.7-.54-1.06-.33-.73-.48-1.09-.3-.75-.43-1.12-.26-.75-.37-1.13-.23-.77-.33-1.15-.18-.78-.26-1.17-.15-.78-.21-1.17-.11-.8-.15-1.19-.07-.8-.09-1.2,0-.8,0-1.2,0-.8,0-1.2.06-.8.09-1.2.09-.79.15-1.19.13-.78.21-1.17.17-.78.26-1.17.21-.77.33-1.15.23-.76.37-1.13.28-.75.43-1.11.31-.74.48-1.1.35-.71.54-1.06.38-.7.58-1,.42-.68.64-1,.45-.67.69-1,.48-.64.73-1,.52-.61.79-.91.54-.59.83-.87.57-.56.87-.83.59-.53.9-.78l.95-.74,1-.68c.33-.22.67-.44,1-.64s.69-.4,1-.58.71-.37,1.07-.54.72-.34,1.09-.48.74-.3,1.11-.43.76-.27,1.14-.38.76-.22,1.15-.32.77-.19,1.16-.27.79-.14,1.18-.2.8-.11,1.19-.15.8-.07,1.2-.09c.79,0,1.6,0,2.4,0q.6,0,1.2.09c.39,0,.79.08,1.18.15s.79.12,1.18.2.79.17,1.17.27.77.2,1.15.32.76.24,1.13.38.75.28,1.11.43.74.31,1.09.48l1.08.54c.34.18.69.38,1,.58s.68.42,1,.64.67.45,1,.68.64.49,1,.74.61.51.91.78.59.55.87.83.56.58.83.87.53.6.78.91.5.62.74,1,.46.64.68,1,.44.67.64,1,.4.69.58,1,.37.71.54,1.06.34.73.49,1.1.29.73.42,1.11.27.75.38,1.13.23.76.32,1.15.19.78.27,1.17.14.78.2,1.17.11.79.15,1.19.07.8.09,1.2,0,.8,0,1.2,0,.8,0,1.2-.05.8-.09,1.2-.08.79-.15,1.19-.12.78-.2,1.17-.17.78-.27,1.17-.2.77-.32,1.15-.24.76-.38,1.13-.28.75-.42,1.12-.32.73-.49,1.09-.35.71-.54,1.06-.38.7-.58,1-.42.69-.64,1l-.68,1c-.24.31-.49.64-.74.94s-.51.61-.78.91-.55.59-.83.87-.58.56-.87.83-.6.53-.91.78-.62.5-1,.73-.64.47-1,.69-.67.43-1,.64l-1,.59-1.08.53c-.35.17-.72.33-1.09.48s-.73.3-1.11.44l-1.13.37-1.15.32c-.38.1-.78.19-1.17.26s-.79.15-1.18.21-.79.11-1.18.15-.8.07-1.2.09S24.79,351.24,24.39,351.24Z" style="fill:#ea4335"></path><path d="M459.91,351.24H341.66a24.38,24.38,0,0,1,0-48.76H459.91a24.38,24.38,0,1,1,0,48.76Z" style="fill:#fbbc05"></path><path d="M274.66,351.24c-.4,0-.81,0-1.21,0s-.8,0-1.19-.09-.79-.09-1.19-.15-.79-.13-1.18-.21-.78-.16-1.17-.26l-1.15-.32-1.13-.37c-.37-.14-.74-.28-1.11-.44s-.74-.31-1.09-.48l-1.07-.53-1-.59c-.34-.21-.68-.42-1-.64s-.66-.45-1-.69-.64-.48-.94-.73-.62-.52-.92-.78-.59-.55-.87-.83-.56-.57-.83-.87-.53-.6-.78-.91-.5-.63-.73-.94-.47-.66-.69-1-.43-.67-.64-1-.4-.68-.58-1-.37-.7-.54-1.06-.33-.73-.48-1.09-.3-.75-.43-1.12-.26-.75-.38-1.13-.22-.77-.32-1.15-.18-.78-.26-1.17-.15-.78-.21-1.17-.11-.8-.15-1.19-.07-.8-.09-1.2,0-.8,0-1.2,0-.8,0-1.2,0-.8.09-1.2.09-.79.15-1.19.13-.78.21-1.17.16-.78.26-1.17.21-.77.32-1.15.25-.76.38-1.13.27-.75.43-1.11.31-.74.48-1.1.35-.71.54-1.06.38-.7.58-1,.42-.68.64-1,.45-.67.69-1,.48-.64.73-1,.51-.61.78-.91.55-.59.83-.87.58-.56.87-.83.61-.53.92-.78.62-.5.94-.74l1-.68c.33-.22.67-.44,1-.64s.69-.4,1-.58.71-.37,1.07-.54.73-.34,1.09-.48.74-.3,1.11-.43.76-.27,1.13-.38.77-.22,1.15-.32.78-.19,1.17-.27.79-.14,1.18-.2.79-.11,1.19-.15.8-.07,1.19-.09c.8,0,1.61,0,2.41,0,.39,0,.8.05,1.19.09s.8.08,1.19.15.79.12,1.18.2.78.17,1.17.27.77.2,1.15.32.76.24,1.13.38.75.28,1.11.43.74.31,1.1.48.71.35,1.06.54.7.38,1,.58.69.42,1,.64l1,.68.94.74c.31.25.61.51.91.78s.59.55.87.83.56.58.83.87.53.6.78.91.5.62.73,1,.47.64.69,1,.43.67.64,1,.4.69.59,1l.53,1.06c.17.36.33.73.48,1.1s.3.73.44,1.11.25.75.37,1.13.22.76.32,1.15.18.78.26,1.17.16.78.21,1.17.11.79.15,1.19.07.8.09,1.2,0,.8,0,1.2,0,.8,0,1.2-.05.8-.09,1.2-.09.79-.15,1.19-.13.78-.21,1.17-.16.78-.26,1.17-.21.77-.32,1.15-.24.76-.37,1.13-.28.75-.44,1.12-.31.73-.48,1.09-.35.71-.53,1.06-.39.7-.59,1-.42.69-.64,1-.45.66-.69,1-.48.64-.73.94-.52.61-.78.91-.55.59-.83.87-.57.56-.87.83-.6.53-.91.78-.63.5-.94.73-.66.47-1,.69-.67.43-1,.64l-1,.59-1.06.53c-.36.17-.73.33-1.1.48s-.74.3-1.11.44l-1.13.37-1.15.32c-.39.1-.78.19-1.17.26s-.78.15-1.18.21-.79.11-1.19.15-.8.07-1.19.09S275.05,351.24,274.66,351.24Z" style="fill:#4185f4"></path><path d="M175.53,426.86H90.79a24.38,24.38,0,1,1,0-48.76h84.74a24.38,24.38,0,1,1,0,48.76Z" style="fill:#4185f4"></path><path d="M242.54,426.86q-.6,0-1.2,0l-1.2-.09c-.4,0-.79-.09-1.19-.15l-1.17-.21c-.39-.08-.78-.16-1.17-.26l-1.15-.32-1.13-.37c-.38-.14-.75-.28-1.12-.44s-.73-.31-1.09-.48l-1.06-.53c-.36-.19-.7-.39-1-.6s-.69-.41-1-.63-.66-.45-1-.69-.64-.48-.94-.73-.62-.52-.91-.78-.59-.55-.88-.83-.56-.57-.82-.87-.53-.61-.78-.91L223,417l-.68-1c-.22-.32-.44-.67-.64-1s-.41-.69-.59-1-.36-.7-.53-1.06-.34-.73-.49-1.09-.29-.75-.43-1.12-.26-.75-.38-1.13-.21-.77-.31-1.15-.19-.78-.27-1.17-.15-.78-.21-1.18-.11-.79-.14-1.19a11.69,11.69,0,0,1-.09-1.19c0-.4,0-.8,0-1.2s0-.8,0-1.21,0-.79.09-1.19.08-.79.14-1.19.13-.78.21-1.17.17-.79.27-1.17.2-.77.31-1.15.25-.76.38-1.14.28-.74.43-1.11.32-.73.49-1.09.34-.71.53-1.07.39-.7.59-1,.42-.69.64-1,.45-.67.68-1,.49-.64.74-1,.51-.61.78-.91.54-.59.82-.87.58-.56.88-.83.6-.53.91-.78.63-.5.94-.74.66-.46,1-.69.67-.43,1-.63.68-.4,1-.58.7-.38,1.06-.54.73-.34,1.09-.49.74-.29,1.12-.42.75-.27,1.13-.38.76-.23,1.15-.33l1.17-.26c.39-.08.78-.14,1.17-.2s.79-.11,1.19-.15.8-.07,1.2-.09q1.2-.06,2.4,0c.4,0,.81.05,1.2.09s.79.08,1.19.15.79.12,1.17.2l1.17.26c.38.1.77.21,1.15.33s.76.24,1.13.38l1.12.42c.36.15.73.32,1.09.49s.72.35,1.06.54.7.38,1,.58.68.41,1,.63.66.45,1,.69.64.48.94.74.62.51.91.78.59.55.87.83.56.57.83.87.53.6.79.91.5.62.73,1,.47.64.69,1,.43.67.63,1,.4.69.59,1,.37.72.54,1.07.32.73.48,1.09.3.74.43,1.11.26.76.38,1.14.22.76.31,1.15.19.78.27,1.17.15.78.21,1.17.11.79.15,1.19.07.8.09,1.19,0,.81,0,1.21,0,.8,0,1.2,0,.8-.09,1.19-.1.8-.15,1.19-.13.79-.21,1.18-.17.78-.27,1.17-.2.77-.31,1.15-.25.76-.38,1.13-.28.75-.43,1.12-.31.73-.48,1.09-.35.71-.54,1.06-.38.7-.59,1-.42.69-.63,1-.46.66-.69,1-.48.63-.73.94-.52.61-.79.91-.54.59-.83.87-.57.56-.87.83-.6.53-.91.78-.62.5-.94.73-.65.47-1,.69-.67.43-1,.63-.69.41-1,.6l-1.06.53c-.36.17-.73.33-1.09.48s-.75.3-1.12.44l-1.13.37-1.15.32c-.39.1-.78.18-1.17.26s-.78.15-1.17.21l-1.19.15c-.39,0-.8.07-1.2.09S242.94,426.86,242.54,426.86Z" style="fill:#34a853"></path><path d="M393.29,426.86H308.55a24.38,24.38,0,1,1,0-48.76h84.74a24.38,24.38,0,1,1,0,48.76Z" style="fill:#606269"></path><path d="M459.91,426.86q-.6,0-1.2,0c-.4,0-.8-.05-1.19-.09s-.8-.09-1.19-.15-.79-.13-1.18-.21-.78-.16-1.17-.26l-1.15-.32-1.13-.37c-.37-.14-.75-.28-1.12-.44s-.73-.31-1.09-.48-.72-.35-1.06-.53-.7-.39-1.05-.6-.68-.41-1-.63-.65-.45-1-.69-.63-.48-.94-.73-.62-.52-.91-.78-.59-.55-.87-.83-.56-.57-.83-.87-.53-.61-.78-.91l-.74-.94-.68-1c-.22-.32-.44-.67-.64-1s-.4-.69-.59-1-.36-.7-.53-1.06-.33-.73-.49-1.09-.29-.75-.43-1.12-.25-.75-.37-1.13-.23-.77-.32-1.15-.19-.78-.27-1.17-.15-.78-.2-1.18-.11-.79-.15-1.19-.07-.79-.1-1.19,0-.8,0-1.2,0-.8,0-1.21.06-.79.1-1.19.09-.79.15-1.19.13-.78.2-1.17.17-.79.27-1.17.2-.77.32-1.15.24-.76.37-1.14.28-.74.43-1.11.32-.73.49-1.09l.53-1.07c.19-.34.38-.7.59-1s.42-.69.64-1,.45-.67.68-1,.49-.64.74-1,.51-.61.78-.91.55-.59.83-.87.57-.56.87-.83.6-.53.91-.78.63-.5.94-.74l1-.69c.33-.22.67-.43,1-.63s.7-.4,1.05-.58.7-.38,1.06-.54.73-.34,1.09-.49l1.12-.42c.37-.14.75-.27,1.13-.38s.77-.23,1.15-.33l1.17-.26c.39-.08.78-.14,1.18-.2s.79-.11,1.19-.15.79-.07,1.19-.09c.8,0,1.61,0,2.41,0l1.19.09c.4,0,.8.08,1.19.15s.79.12,1.18.2l1.16.26c.39.1.77.21,1.15.33s.76.24,1.14.38l1.11.42c.36.15.73.32,1.09.49s.72.35,1.07.54.7.38,1,.58.68.41,1,.63.66.45,1,.69.64.48.94.74.62.51.92.78.59.55.87.83.56.57.82.87.53.6.78.91.5.62.74,1,.46.64.69,1,.43.67.63,1,.41.69.59,1,.37.72.53,1.07.34.73.49,1.09.29.74.43,1.11.26.76.38,1.14.22.76.32,1.15.18.78.26,1.17.15.78.21,1.17.11.79.15,1.19.07.8.09,1.19,0,.81,0,1.21,0,.8,0,1.2,0,.8-.09,1.19-.09.8-.15,1.19-.13.79-.21,1.18-.16.78-.26,1.17-.21.77-.32,1.15-.25.76-.38,1.13-.28.75-.43,1.12-.31.73-.49,1.09-.34.71-.53,1.06-.39.7-.59,1-.41.69-.63,1-.45.66-.69,1-.48.63-.74.94-.51.61-.78.91-.54.59-.82.87-.58.56-.87.83-.61.53-.92.78-.62.5-.94.73-.65.47-1,.69-.67.43-1,.63-.69.41-1,.6l-1.07.53c-.36.17-.73.33-1.09.48s-.74.3-1.11.44l-1.14.37-1.15.32c-.38.1-.78.18-1.16.26s-.79.15-1.18.21-.79.11-1.19.15l-1.19.09Z" style="fill:#4185f4"></path><path d="M24.44,426.86q-.6,0-1.2,0c-.39,0-.8-.05-1.19-.09s-.8-.09-1.19-.15-.79-.13-1.18-.21-.78-.16-1.17-.26l-1.15-.32-1.13-.37c-.37-.14-.75-.28-1.12-.44s-.73-.31-1.09-.48L13,424c-.35-.19-.7-.39-1-.6s-.68-.41-1-.63-.65-.45-1-.69-.64-.48-.95-.73-.62-.52-.91-.78-.59-.55-.87-.83-.56-.57-.83-.87-.53-.61-.78-.91-.5-.63-.73-.94-.47-.66-.69-1-.44-.67-.64-1-.4-.69-.59-1-.36-.7-.53-1.06-.33-.73-.49-1.09-.29-.75-.43-1.12-.25-.75-.37-1.13-.22-.77-.32-1.15-.18-.78-.26-1.17-.16-.78-.21-1.18-.11-.79-.15-1.19-.07-.79-.09-1.19,0-.8,0-1.2,0-.8,0-1.21.05-.79.09-1.19.09-.79.15-1.19.13-.78.21-1.17.16-.79.26-1.17.21-.77.32-1.15.24-.76.37-1.14.28-.74.43-1.11.32-.73.49-1.09L2.94,391c.19-.34.39-.7.59-1s.42-.69.64-1,.45-.67.69-1,.48-.64.73-1,.51-.61.78-.91.55-.59.83-.87.57-.56.87-.83.6-.53.91-.78.63-.5.95-.74.65-.46,1-.69.67-.43,1-.63.69-.4,1-.58.7-.38,1.06-.54.73-.34,1.09-.49l1.12-.42c.37-.14.75-.27,1.13-.38s.77-.23,1.15-.33l1.17-.26c.39-.08.78-.14,1.18-.2s.79-.11,1.19-.15.8-.07,1.19-.09c.8,0,1.61,0,2.41,0,.39,0,.8.05,1.19.09s.8.08,1.19.15.79.12,1.18.2l1.16.26c.39.1.77.21,1.16.33s.75.24,1.13.38l1.11.42c.37.15.73.32,1.09.49s.72.35,1.07.54.7.38,1,.58.68.41,1,.63.66.45,1,.69.64.48.94.74.62.51.92.78.59.55.87.83.56.57.83.87.53.6.78.91.5.62.73,1,.47.64.69,1,.43.67.63,1,.41.69.6,1l.53,1.07c.17.36.33.73.48,1.09s.3.74.43,1.11.26.76.38,1.14.22.76.32,1.15.18.78.26,1.17.15.78.21,1.17.11.79.15,1.19.07.8.09,1.19,0,.81,0,1.21,0,.8,0,1.2,0,.8-.09,1.19-.09.8-.15,1.19-.13.79-.21,1.18-.16.78-.26,1.17-.21.77-.32,1.15-.25.76-.38,1.13-.27.75-.43,1.12-.31.73-.48,1.09-.35.71-.53,1.06-.39.7-.6,1-.41.69-.63,1-.45.66-.69,1-.48.63-.73.94l-.78.91c-.27.3-.55.59-.83.87s-.58.56-.87.83-.61.53-.92.78-.62.5-.94.73-.65.47-1,.69-.67.43-1,.63-.69.41-1,.6l-1.07.53c-.36.17-.72.33-1.09.48s-.74.3-1.11.44l-1.13.37-1.16.32c-.38.1-.77.18-1.16.26s-.78.15-1.18.21-.79.11-1.19.15-.8.07-1.19.09S24.84,426.86,24.44,426.86Z" style="fill:#fbbc05"></path><path d="M242.54,275.62H157.8a24.38,24.38,0,1,1,0-48.76h84.74a24.38,24.38,0,1,1,0,48.76Z" style="fill:#ea4335"></path><path d="M393.29,275.62H308.55a24.38,24.38,0,1,1,0-48.76h84.74a24.38,24.38,0,1,1,0,48.76Z" style="fill:#34a853"></path><path d="M90.79,275.62q-.6,0-1.2,0c-.4,0-.8,0-1.19-.09l-1.2-.15q-.58-.09-1.17-.21c-.39-.07-.78-.16-1.17-.26s-.77-.2-1.15-.32-.76-.24-1.13-.38-.75-.27-1.12-.42l-1.09-.49c-.36-.17-.72-.35-1.06-.53s-.7-.38-1-.59-.68-.42-1-.64-.66-.45-1-.68-.63-.48-.94-.74-.62-.51-.91-.78-.59-.55-.87-.83-.56-.57-.83-.87-.53-.6-.79-.91-.49-.62-.73-.95-.47-.64-.69-1-.43-.67-.63-1-.4-.69-.59-1-.37-.72-.54-1.07-.32-.73-.48-1.1-.3-.73-.43-1.11-.26-.75-.37-1.13-.23-.77-.32-1.15-.19-.78-.27-1.16-.15-.79-.2-1.18-.11-.8-.16-1.19l-.09-1.2c0-.4,0-.8,0-1.2s0-.8,0-1.2l.09-1.2c0-.39.1-.79.16-1.18s.12-.8.2-1.19.17-.78.27-1.16.2-.77.32-1.15.24-.76.37-1.13.28-.75.43-1.12.31-.73.48-1.09.36-.72.54-1.06.38-.7.59-1,.42-.67.63-1,.46-.65.69-1,.48-.64.73-.95.52-.62.79-.91.55-.59.83-.87.57-.56.87-.83.6-.53.91-.78.62-.5.94-.74l1-.68c.33-.22.67-.44,1-.64s.69-.4,1-.59.7-.36,1.06-.53l1.09-.49c.37-.15.75-.29,1.12-.42s.75-.26,1.13-.38l1.15-.32c.39-.1.78-.18,1.17-.26s.78-.16,1.17-.21l1.2-.15c.39,0,.79-.07,1.19-.09.8,0,1.6,0,2.41,0l1.19.09c.4,0,.79.09,1.19.15s.78.13,1.17.21.78.16,1.17.26l1.15.32c.38.12.76.24,1.14.38s.74.27,1.11.42l1.09.49,1.07.53c.35.19.69.39,1,.59s.69.42,1,.64l1,.68c.32.24.64.49.94.74s.62.51.91.78.6.55.88.83.56.57.82.87.53.6.78.91.5.63.74.95.46.64.68,1,.44.67.64,1,.41.7.59,1,.36.7.53,1.06.34.73.49,1.09.29.75.43,1.12.26.75.38,1.13.22.77.31,1.15.19.77.27,1.16.15.79.21,1.19.11.79.14,1.18.08.8.09,1.2,0,.8,0,1.2,0,.8,0,1.2,0,.8-.09,1.2-.08.8-.14,1.19-.13.79-.21,1.18-.17.78-.27,1.16-.2.77-.31,1.15-.25.76-.38,1.13-.28.75-.43,1.11-.32.74-.49,1.1-.34.71-.53,1.07-.39.7-.59,1-.42.68-.64,1-.45.67-.68,1-.49.64-.74.95-.51.61-.78.91-.54.59-.82.87-.58.56-.88.83-.6.53-.91.78-.62.5-.94.74-.65.47-1,.68-.67.44-1,.64-.68.4-1,.59l-1.07.53-1.09.49q-.56.23-1.11.42c-.38.14-.76.26-1.14.38s-.76.23-1.15.32-.78.19-1.17.26-.78.15-1.17.21-.79.11-1.19.15l-1.19.09Z" style="fill:#606269"></path><path d="M459.91,275.62q-.6,0-1.2,0c-.4,0-.8,0-1.19-.09s-.8-.09-1.19-.15-.79-.13-1.18-.21-.78-.16-1.17-.26-.77-.2-1.15-.32-.76-.24-1.13-.38-.75-.27-1.12-.42l-1.09-.49c-.36-.17-.71-.35-1.06-.53s-.7-.38-1.05-.59-.67-.42-1-.64-.65-.45-1-.68-.64-.48-.95-.74-.62-.51-.91-.78-.59-.55-.87-.83-.56-.57-.83-.87-.53-.6-.78-.91-.5-.62-.74-.95-.46-.64-.68-1-.44-.67-.64-1-.4-.69-.59-1l-.53-1.07c-.17-.36-.33-.73-.49-1.1s-.29-.73-.42-1.11-.26-.75-.38-1.13-.23-.77-.32-1.15-.19-.78-.27-1.16-.15-.79-.2-1.18-.11-.8-.15-1.19-.07-.8-.1-1.2,0-.8,0-1.2,0-.8,0-1.2.06-.8.1-1.2.09-.79.15-1.18.13-.8.2-1.19.17-.78.27-1.16.2-.77.32-1.15.24-.76.38-1.13.27-.75.42-1.12.32-.73.49-1.09.35-.72.53-1.06.38-.7.59-1,.42-.67.64-1,.45-.65.68-1,.49-.64.74-.95.51-.62.78-.91.55-.59.83-.87.57-.56.87-.83.6-.53.91-.78l.95-.74c.32-.23.64-.46,1-.68s.67-.44,1-.64l1.05-.59c.35-.18.7-.36,1.06-.53l1.09-.49c.37-.15.75-.29,1.12-.42s.75-.26,1.13-.38l1.15-.32c.39-.1.78-.18,1.17-.26s.78-.16,1.18-.21.79-.11,1.19-.15.79-.07,1.19-.09c.8,0,1.61,0,2.41,0l1.19.09c.4,0,.8.09,1.19.15s.79.13,1.17.21.79.16,1.17.26l1.15.32c.38.12.76.24,1.14.38s.74.27,1.11.42l1.09.49,1.07.53,1,.59c.34.2.68.42,1,.64l1,.68.95.74c.3.25.61.51.91.78s.59.55.87.83.56.57.82.87.53.6.78.91.5.63.74.95.46.64.69,1,.43.67.63,1,.41.7.59,1,.37.7.53,1.06.34.73.49,1.09.29.75.43,1.12.26.75.38,1.13.22.77.32,1.15.18.77.26,1.16.15.79.21,1.19.11.79.15,1.18.07.8.09,1.2,0,.8,0,1.2,0,.8,0,1.2,0,.8-.09,1.2-.09.8-.15,1.19-.13.79-.21,1.18-.16.78-.26,1.16-.21.77-.32,1.15-.25.76-.38,1.13-.28.75-.43,1.11-.31.74-.49,1.1-.34.71-.53,1.07-.39.7-.59,1-.41.68-.63,1-.45.67-.69,1-.48.64-.74.95-.51.61-.78.91-.54.59-.82.87-.58.56-.87.83-.61.53-.91.78-.63.5-.95.74-.65.47-1,.68-.67.44-1,.64-.69.4-1,.59l-1.07.53-1.09.49q-.56.23-1.11.42c-.38.14-.76.26-1.14.38s-.76.23-1.15.32-.78.19-1.17.26-.78.15-1.17.21-.79.11-1.19.15l-1.19.09Z" style="fill:#fbbc05"></path><path d="M24.44,275.62q-.6,0-1.2,0c-.39,0-.8,0-1.19-.09s-.8-.09-1.19-.15-.79-.13-1.18-.21-.78-.16-1.17-.26-.77-.2-1.15-.32-.76-.24-1.13-.38-.75-.27-1.12-.42L14,273.27c-.36-.17-.72-.35-1.06-.53s-.7-.38-1-.59-.69-.42-1-.64-.65-.45-1-.68-.63-.48-.94-.74-.62-.51-.91-.78-.59-.55-.87-.83-.56-.57-.83-.87-.53-.6-.78-.91-.5-.62-.73-.95-.47-.64-.69-1-.44-.67-.64-1-.4-.69-.59-1l-.53-1.07c-.17-.36-.33-.73-.49-1.1s-.29-.73-.43-1.11-.25-.75-.37-1.13-.22-.77-.32-1.15S.62,256.39.54,256s-.16-.79-.21-1.18-.11-.8-.15-1.19-.07-.8-.09-1.2,0-.8,0-1.2,0-.8,0-1.2.05-.8.09-1.2.09-.79.15-1.18.13-.8.21-1.19.16-.78.26-1.16.21-.77.32-1.15.24-.76.37-1.13.28-.75.43-1.12.32-.73.49-1.09.35-.72.53-1.06.39-.7.59-1,.42-.67.64-1,.45-.65.69-1,.48-.64.73-.95.51-.62.78-.91.55-.59.83-.87.57-.56.87-.83.6-.53.91-.78l.94-.74,1-.68c.33-.22.67-.44,1-.64l1-.59c.34-.18.7-.36,1.06-.53l1.09-.49c.37-.15.75-.29,1.12-.42s.75-.26,1.13-.38l1.15-.32c.39-.1.78-.18,1.17-.26s.78-.16,1.18-.21.79-.11,1.19-.15.8-.07,1.19-.09c.8,0,1.61,0,2.41,0,.39,0,.8.05,1.19.09s.8.09,1.19.15.79.13,1.18.21.78.16,1.16.26l1.16.32c.37.12.75.24,1.13.38s.74.27,1.11.42l1.09.49,1.07.53,1,.59c.34.2.68.42,1,.64l1,.68c.32.24.64.49.94.74s.62.51.92.78.59.55.87.83.56.57.83.87.53.6.78.91.5.63.73.95.47.64.69,1,.43.67.63,1,.41.7.6,1,.36.7.53,1.06.33.73.48,1.09.3.75.43,1.12.26.75.38,1.13.22.77.32,1.15.18.77.26,1.16.15.79.21,1.19.11.79.15,1.18.07.8.09,1.2,0,.8,0,1.2,0,.8,0,1.2,0,.8-.09,1.2-.09.8-.15,1.19-.13.79-.21,1.18-.16.78-.26,1.16-.21.77-.32,1.15-.25.76-.38,1.13-.27.75-.43,1.11-.31.74-.48,1.1L46,262.73c-.19.34-.39.7-.6,1s-.41.68-.63,1-.45.67-.69,1-.48.64-.73.95-.52.61-.78.91-.55.59-.83.87-.58.56-.87.83-.61.53-.92.78-.62.5-.94.74-.65.47-1,.68-.67.44-1,.64-.69.4-1,.59l-1.07.53-1.09.49q-.56.23-1.11.42c-.38.14-.76.26-1.13.38s-.77.23-1.16.32-.77.19-1.16.26-.78.15-1.18.21-.79.11-1.19.15-.8.07-1.19.09S24.84,275.62,24.44,275.62Z" style="fill:#4185f4"></path><path d="M276.87,75.62H393.29a24.39,24.39,0,1,1,0,48.77H276.87a24.39,24.39,0,0,1,0-48.77Z" style="fill:#34a853"></path><path d="M459.92,75.62c.39,0,.8,0,1.2,0l1.19.09c.4,0,.8.09,1.19.15s.79.13,1.18.21.78.17,1.16.26.78.21,1.16.33.76.23,1.13.37.75.28,1.11.43.73.31,1.09.48.72.35,1.07.54.7.38,1,.58.68.42,1,.64.66.45,1,.69.64.48.95.73l.91.79c.29.26.59.54.87.82s.56.58.83.88.52.59.78.9.5.63.73.95.47.65.69,1,.43.67.64,1,.4.69.58,1,.37.71.54,1.07.33.72.48,1.09.3.74.43,1.11.26.76.38,1.13.22.77.32,1.16.18.77.26,1.16.15.78.21,1.17.11.8.15,1.19.07.81.09,1.2,0,.81,0,1.2,0,.81,0,1.2,0,.81-.09,1.2-.09.79-.15,1.19-.13.79-.21,1.18-.16.78-.26,1.17-.21.76-.32,1.14-.24.76-.38,1.13-.28.75-.43,1.12-.31.73-.48,1.09-.35.72-.54,1.06-.38.7-.58,1-.42.68-.64,1-.45.66-.69,1-.48.64-.73.94l-.78.92-.83.87c-.28.28-.58.56-.87.82s-.6.53-.91.78l-.95.74-1,.68c-.33.22-.67.44-1,.64s-.69.41-1,.59-.71.36-1.07.53-.72.34-1.09.48-.74.3-1.11.44l-1.13.38-1.16.31c-.38.1-.77.19-1.16.27s-.79.15-1.18.21-.79.11-1.19.14-.8.08-1.19.09a19.38,19.38,0,0,1-2.41,0,11.69,11.69,0,0,1-1.19-.09c-.4,0-.8-.08-1.19-.14s-.79-.13-1.18-.21-.78-.17-1.17-.27l-1.15-.31L451.7,123c-.37-.14-.75-.28-1.11-.44s-.74-.31-1.09-.48-.72-.34-1.07-.53-.7-.39-1-.59-.68-.42-1-.64-.66-.45-1-.68l-.95-.74c-.31-.25-.61-.51-.91-.78s-.59-.54-.87-.82l-.83-.87c-.27-.3-.53-.61-.78-.92s-.5-.62-.74-.94-.46-.65-.68-1-.44-.67-.64-1-.4-.69-.58-1-.37-.7-.54-1.06-.33-.73-.49-1.09-.29-.74-.42-1.12-.26-.75-.38-1.13-.23-.76-.32-1.14-.19-.78-.26-1.17-.15-.79-.21-1.18-.11-.79-.15-1.19-.07-.8-.09-1.2,0-.8,0-1.2,0-.8,0-1.2.05-.8.09-1.2.09-.79.15-1.19.13-.78.21-1.17.17-.78.26-1.16.2-.78.32-1.16.24-.76.38-1.13.28-.75.42-1.11.32-.73.49-1.09.35-.72.54-1.07.38-.7.58-1,.42-.68.64-1,.45-.66.68-1,.49-.64.74-.95.51-.61.78-.9.55-.6.83-.88.58-.56.87-.82l.91-.79c.31-.25.63-.5.95-.73s.64-.47,1-.69.67-.43,1-.64.69-.39,1-.58.71-.37,1.07-.54.72-.33,1.09-.48.74-.3,1.11-.43.75-.26,1.13-.37.77-.23,1.15-.33.78-.19,1.17-.26.79-.15,1.18-.21.79-.11,1.19-.15.79-.07,1.19-.09S459.51,75.62,459.92,75.62Z" style="fill:#ea4335"></path><path d="M24.39,75.62H142.64a24.39,24.39,0,0,1,0,48.77H24.39a24.39,24.39,0,1,1,0-48.77Z" style="fill:#fbbc05"></path><path d="M209.64,75.62c.41,0,.81,0,1.21,0s.8,0,1.19.09.8.09,1.19.15.79.13,1.18.21.78.17,1.17.26.77.21,1.15.33.75.23,1.13.37.75.28,1.11.43.74.31,1.09.48.72.35,1.07.54.7.38,1,.58.68.42,1,.64.66.45,1,.69.64.48,1,.73l.91.79c.29.26.59.54.87.82s.56.58.83.88.53.59.78.9.5.63.74.95.46.65.68,1,.44.67.64,1,.4.69.58,1,.37.71.54,1.07.33.72.49,1.09.29.74.42,1.11.26.76.38,1.13.23.77.32,1.16.19.77.27,1.16.14.78.2,1.17.11.8.15,1.19.07.81.09,1.2,0,.81,0,1.2,0,.81,0,1.2-.05.81-.09,1.2-.09.79-.15,1.19-.13.79-.2,1.18-.17.78-.27,1.17-.2.76-.32,1.14-.24.76-.38,1.13-.27.75-.42,1.12-.32.73-.49,1.09-.35.72-.54,1.06-.38.7-.58,1-.42.68-.64,1-.45.66-.68,1-.49.64-.74.94-.51.62-.78.92l-.83.87c-.28.28-.58.56-.87.82s-.6.53-.91.78l-1,.74c-.32.23-.64.46-1,.68s-.67.44-1,.64-.69.41-1,.59-.71.36-1.07.53-.72.34-1.09.48-.74.3-1.11.44l-1.13.38-1.15.31q-.59.15-1.17.27c-.39.08-.79.15-1.18.21s-.79.11-1.19.14a11.69,11.69,0,0,1-1.19.09,19.38,19.38,0,0,1-2.41,0c-.39,0-.79,0-1.19-.09s-.8-.08-1.19-.14-.79-.13-1.18-.21-.78-.17-1.16-.27-.78-.2-1.15-.31l-1.14-.38c-.37-.14-.75-.28-1.11-.44s-.73-.31-1.09-.48-.72-.34-1.07-.53-.7-.39-1-.59-.68-.42-1-.64l-1-.68-.95-.74q-.47-.37-.9-.78c-.3-.26-.6-.54-.88-.82s-.56-.58-.82-.87-.53-.61-.79-.92-.49-.62-.73-.94-.47-.65-.69-1-.43-.67-.63-1-.41-.69-.59-1-.37-.7-.54-1.06-.33-.73-.48-1.09-.3-.74-.43-1.12-.26-.75-.38-1.13-.22-.76-.32-1.14-.18-.78-.26-1.17-.15-.79-.21-1.18-.11-.79-.15-1.19-.07-.8-.09-1.2,0-.8,0-1.2,0-.8,0-1.2.05-.8.09-1.2.09-.79.15-1.19.13-.78.21-1.17.16-.78.26-1.16.21-.78.32-1.16.24-.76.38-1.13.28-.75.43-1.11.31-.73.48-1.09.35-.72.54-1.07.38-.7.59-1,.41-.68.63-1,.45-.66.69-1,.48-.64.73-.95.52-.61.79-.9.54-.6.82-.88.58-.56.88-.82.59-.53.9-.79.63-.5.95-.73.65-.47,1-.69.67-.43,1-.64.69-.39,1-.58.71-.37,1.07-.54.72-.33,1.09-.48.74-.3,1.11-.43.76-.26,1.14-.37.76-.23,1.15-.33.77-.19,1.16-.26.79-.15,1.18-.21.79-.11,1.19-.15l1.19-.09C208.84,75.63,209.25,75.62,209.64,75.62Z" style="fill:#4185f4"></path><path d="M308.77,0h84.74a24.39,24.39,0,1,1,0,48.77H308.77a24.39,24.39,0,1,1,0-48.77Z" style="fill:#4185f4"></path><path d="M241.76,0c.4,0,.81,0,1.2,0s.81.06,1.2.09.79.09,1.19.15.79.13,1.18.21l1.17.26q.57.15,1.14.33c.38.11.76.24,1.13.37s.75.28,1.12.43l1.09.48c.36.17.72.35,1.06.54s.71.38,1,.59.68.41,1,.63.66.45,1,.69.64.48.94.73.62.52.92.79.58.54.87.82.56.58.83.88.53.6.78.9.5.63.73.95.47.65.69,1l.64,1c.2.34.4.69.58,1s.37.71.54,1.07.33.72.48,1.09.3.74.43,1.11.26.76.38,1.13.22.77.31,1.16.19.77.27,1.16.15.79.21,1.18.11.79.15,1.19.07.8.09,1.19,0,.81,0,1.2,0,.81,0,1.21-.05.8-.09,1.19-.09.79-.15,1.19-.13.79-.21,1.18-.17.78-.27,1.17-.2.76-.31,1.15-.25.75-.38,1.13-.28.74-.43,1.11-.31.74-.48,1.09-.35.72-.54,1.07-.38.7-.58,1l-.64,1c-.22.33-.46.66-.69,1s-.48.64-.73.94-.52.62-.78.92-.55.59-.83.87-.58.56-.87.82-.61.53-.92.78-.62.5-.94.74-.65.46-1,.69-.67.43-1,.63-.69.41-1,.59-.7.37-1.06.53-.73.34-1.09.49l-1.12.43-1.13.38L247.7,48c-.39.1-.78.18-1.17.26s-.79.15-1.18.21-.79.11-1.19.14a11.89,11.89,0,0,1-1.2.09,19.22,19.22,0,0,1-2.4,0c-.39,0-.8,0-1.2-.09s-.79-.08-1.19-.14L237,48.29c-.39-.08-.78-.16-1.17-.26l-1.15-.32-1.13-.38-1.12-.43c-.36-.15-.73-.32-1.09-.49s-.71-.34-1.06-.53-.7-.39-1-.59-.69-.41-1-.63-.66-.45-1-.69-.64-.48-.94-.74-.62-.51-.91-.78-.59-.54-.87-.82-.56-.58-.83-.87-.53-.61-.78-.92-.5-.62-.73-.94-.47-.65-.69-1-.44-.67-.64-1-.4-.69-.59-1-.36-.71-.53-1.07-.33-.73-.48-1.09-.3-.74-.44-1.11-.26-.76-.37-1.13-.22-.77-.32-1.15-.19-.78-.27-1.17-.15-.79-.21-1.18-.11-.79-.14-1.19a11.91,11.91,0,0,1-.09-1.19c0-.4,0-.81,0-1.21s0-.8,0-1.2A11.91,11.91,0,0,1,217.5,22c0-.4.09-.8.14-1.19s.14-.79.21-1.18.17-.78.27-1.16.21-.78.32-1.16.24-.76.37-1.13.28-.75.44-1.11.31-.73.48-1.09.34-.72.53-1.07.39-.7.59-1,.42-.68.64-1,.45-.66.69-1,.48-.64.73-.95.51-.61.78-.9.54-.6.83-.88.57-.56.87-.82.6-.53.91-.79.63-.49.94-.73.66-.47,1-.69.66-.43,1-.63.68-.4,1-.59.7-.37,1.06-.54l1.09-.48c.37-.15.75-.3,1.12-.43s.75-.26,1.13-.37.77-.23,1.15-.33L237,.48q.58-.12,1.17-.21l1.19-.15,1.2-.09Z" style="fill:#34a853"></path><path d="M91,0h84.74a24.39,24.39,0,1,1,0,48.77H91A24.39,24.39,0,1,1,91,0Z" style="fill:#606269"></path><path d="M24.39,0q.6,0,1.2,0l1.2.09c.39,0,.79.09,1.18.15s.8.13,1.19.21l1.16.26c.38.1.77.21,1.15.33s.76.24,1.13.37.75.28,1.12.43l1.09.48c.36.17.72.35,1.07.54s.7.38,1,.59.68.41,1,.63.66.45,1,.69l.94.73c.31.26.62.52.91.79s.59.54.87.82.56.58.83.88.53.6.79.9.49.63.73.95.47.65.69,1,.43.67.63,1,.4.69.59,1,.37.71.54,1.07.33.72.48,1.09.3.74.43,1.11.26.76.37,1.13.23.77.33,1.16.18.77.26,1.16.15.79.2,1.18.11.79.16,1.19l.09,1.19c0,.4,0,.81,0,1.2s0,.81,0,1.21l-.09,1.19c0,.4-.09.79-.16,1.19s-.12.79-.2,1.18-.17.78-.26,1.17-.21.76-.33,1.15-.24.75-.37,1.13-.28.74-.43,1.11-.32.74-.48,1.09-.36.72-.54,1.07-.38.7-.59,1-.41.68-.63,1-.45.66-.69,1-.48.64-.73.94-.52.62-.79.92-.55.59-.83.87-.57.56-.87.82-.6.53-.91.78-.62.5-.94.74-.65.46-1,.69-.67.43-1,.63-.7.41-1,.59-.71.37-1.07.53-.73.34-1.09.49l-1.12.43-1.13.38L30.32,48c-.38.1-.77.18-1.16.26s-.79.15-1.19.21-.79.11-1.18.14-.8.08-1.2.09a19.22,19.22,0,0,1-2.4,0q-.6,0-1.2-.09c-.39,0-.8-.08-1.19-.14s-.79-.13-1.18-.21-.78-.16-1.16-.26l-1.15-.32-1.14-.38-1.1-.43c-.37-.15-.74-.32-1.1-.49s-.71-.34-1.07-.53-.7-.39-1-.59-.68-.41-1-.63-.67-.45-1-.69-.64-.48-1-.74-.61-.51-.91-.78-.59-.54-.87-.82-.56-.58-.83-.87-.53-.61-.78-.92-.5-.62-.74-.94-.46-.65-.69-1-.43-.67-.63-1-.4-.69-.59-1-.37-.71-.53-1.07-.34-.73-.49-1.09S1.58,33,1.44,32.6s-.26-.76-.37-1.13S.84,30.7.74,30.32s-.18-.78-.26-1.17S.34,28.36.27,28s-.11-.79-.15-1.19L0,25.59c0-.4,0-.81,0-1.21s0-.8,0-1.2L.12,22c0-.4.09-.8.15-1.19S.4,20,.48,19.62s.17-.78.26-1.16.21-.78.33-1.16.24-.76.37-1.13.28-.75.43-1.11.32-.73.49-1.09.34-.72.53-1.07.39-.7.59-1,.41-.68.63-1,.45-.66.69-1,.48-.64.74-.95.51-.61.78-.9.55-.6.83-.88.57-.56.87-.82l.91-.79c.31-.25.62-.49,1-.73s.64-.47,1-.69.67-.43,1-.63.69-.4,1-.59L14,2.35c.36-.16.73-.33,1.1-.48s.73-.3,1.1-.43.76-.26,1.14-.37.76-.23,1.15-.33L19.62.48C20,.4,20.41.33,20.8.27S21.6.16,22,.12s.8-.07,1.2-.09S24,0,24.39,0Z" style="fill:#4185f4"></path><path d="M459.86,0q.6,0,1.2,0l1.2.09c.39,0,.79.09,1.18.15s.8.13,1.19.21l1.16.26c.38.1.77.21,1.15.33s.76.24,1.13.37.75.28,1.12.43l1.09.48c.36.17.71.35,1.06.54s.71.38,1.05.59.67.41,1,.63.66.45,1,.69.64.48.95.73.62.52.91.79.59.54.87.82.56.58.83.88.53.6.79.9.49.63.73.95.47.65.69,1,.43.67.63,1,.4.69.59,1,.37.71.54,1.07.33.72.48,1.09.3.74.43,1.11.26.76.37,1.13.23.77.32,1.16.19.77.27,1.16.15.79.2,1.18.11.79.16,1.19l.09,1.19c0,.4,0,.81,0,1.2s0,.81,0,1.21l-.09,1.19c-.05.4-.1.79-.16,1.19s-.12.79-.2,1.18-.17.78-.27,1.17-.2.76-.32,1.15-.24.75-.37,1.13-.28.74-.43,1.11-.32.74-.48,1.09-.36.72-.54,1.07-.38.7-.59,1-.42.68-.63,1-.46.66-.69,1-.48.64-.73.94-.52.62-.79.92-.55.59-.83.87-.57.56-.87.82-.6.53-.91.78-.62.5-.95.74-.64.46-1,.69-.67.43-1,.63-.7.41-1.05.59-.7.37-1.06.53-.73.34-1.09.49l-1.12.43-1.13.38-1.15.32c-.39.1-.77.18-1.16.26s-.79.15-1.19.21-.79.11-1.18.14-.8.08-1.2.09a19.38,19.38,0,0,1-2.41,0c-.39,0-.79,0-1.19-.09s-.8-.08-1.19-.14-.79-.13-1.18-.21-.78-.16-1.16-.26l-1.15-.32-1.14-.38-1.11-.43c-.37-.15-.73-.32-1.09-.49s-.71-.34-1.07-.53-.7-.39-1-.59-.69-.41-1-.63-.66-.45-1-.69-.64-.48-.94-.74-.62-.51-.91-.78-.59-.54-.88-.82-.56-.58-.82-.87-.53-.61-.78-.92-.5-.62-.74-.94-.46-.65-.69-1-.43-.67-.63-1-.4-.69-.59-1-.37-.71-.53-1.07-.34-.73-.49-1.09-.29-.74-.43-1.11-.26-.76-.37-1.13-.23-.77-.33-1.15-.18-.78-.26-1.17-.15-.79-.21-1.18-.11-.79-.15-1.19-.07-.8-.08-1.19,0-.81,0-1.21,0-.8,0-1.2,0-.8.08-1.19.09-.8.15-1.19.13-.79.21-1.18.16-.78.26-1.16.21-.78.33-1.16.24-.76.37-1.13.28-.75.43-1.11.32-.73.49-1.09.34-.72.53-1.07.38-.7.59-1,.41-.68.63-1,.45-.66.69-1,.48-.64.74-.95.51-.61.78-.9.54-.6.82-.88.58-.56.88-.82.6-.53.91-.79.62-.49.94-.73.65-.47,1-.69.68-.43,1-.63.68-.4,1-.59.71-.37,1.07-.54.72-.33,1.09-.48.74-.3,1.11-.43.76-.26,1.14-.37.76-.23,1.15-.33l1.16-.26c.39-.08.79-.15,1.18-.21s.79-.11,1.19-.15L458.65,0Z" style="fill:#fbbc05"></path><path d="M241.76,151.24H326.5a24.38,24.38,0,1,1,0,48.76H241.76a24.38,24.38,0,0,1,0-48.76Z" style="fill:#4185f4"></path><path d="M91,151.24h84.74a24.38,24.38,0,1,1,0,48.76H91a24.38,24.38,0,1,1,0-48.76Z" style="fill:#34a853"></path><path d="M393.51,151.24c.4,0,.81,0,1.2,0s.8,0,1.2.09.8.09,1.19.15.79.13,1.18.21.78.16,1.16.26l1.15.32,1.14.38c.37.13.74.27,1.11.43s.73.31,1.09.48l1.07.53,1,.59c.34.21.68.42,1,.64s.66.45,1,.69.63.48.94.73.62.52.91.78.59.55.87.83.56.57.83.87.53.61.79.91.49.63.73,1,.47.65.69,1,.43.67.64,1,.39.69.58,1,.37.71.54,1.06.33.73.48,1.1.3.74.43,1.11.26.75.37,1.13.23.77.33,1.15.18.78.26,1.17.15.78.21,1.18.1.79.15,1.19l.09,1.19c0,.4,0,.8,0,1.21s0,.79,0,1.2l-.09,1.19c0,.4-.09.8-.15,1.19s-.13.79-.21,1.18-.17.78-.26,1.16-.21.78-.33,1.15-.23.76-.37,1.14-.28.75-.43,1.11-.31.73-.48,1.09-.36.72-.54,1.07-.38.7-.58,1l-.64,1c-.22.33-.45.66-.69,1s-.48.64-.73,1-.52.62-.79.91-.55.59-.83.87-.57.56-.87.83-.59.53-.91.78-.62.5-.94.74-.65.47-1,.69-.67.43-1,.63-.69.4-1,.59-.71.37-1.07.54-.72.33-1.09.48-.74.29-1.11.42-.76.27-1.14.38-.77.23-1.15.32-.77.19-1.16.27-.79.15-1.18.2l-1.19.16-1.2.09c-.79,0-1.6,0-2.4,0l-1.2-.09-1.18-.16c-.39,0-.79-.12-1.18-.2s-.78-.17-1.17-.27-.77-.2-1.15-.32-.76-.24-1.13-.38-.75-.27-1.11-.42-.74-.32-1.09-.48-.72-.36-1.08-.54-.69-.38-1-.59-.68-.41-1-.63-.67-.45-1-.69-.64-.48-.95-.74-.61-.51-.91-.78-.59-.55-.87-.83-.56-.57-.83-.87-.53-.6-.78-.91-.5-.62-.74-1-.46-.64-.68-1-.44-.67-.64-1-.4-.7-.59-1-.36-.71-.53-1.07-.34-.72-.49-1.09-.29-.74-.43-1.11-.26-.76-.37-1.14-.23-.76-.32-1.15-.19-.77-.27-1.16-.14-.79-.2-1.18-.11-.79-.15-1.19-.07-.8-.09-1.19,0-.81,0-1.2,0-.81,0-1.21,0-.8.09-1.19.08-.8.15-1.19.12-.79.2-1.18.17-.78.27-1.17.2-.76.32-1.15.24-.75.37-1.13.28-.74.43-1.11.32-.74.49-1.1.35-.71.53-1.06.39-.7.59-1,.42-.68.64-1,.45-.66.68-1,.49-.64.74-1,.51-.61.78-.91.55-.59.83-.87.58-.56.87-.83.6-.53.91-.78.62-.5.95-.73.64-.47,1-.69.67-.43,1-.64l1-.59,1.08-.53c.35-.17.72-.33,1.09-.48s.73-.3,1.11-.43l1.13-.38,1.15-.32c.39-.1.78-.18,1.17-.26s.79-.15,1.18-.21.79-.11,1.18-.15.8-.07,1.2-.09S393.11,151.24,393.51,151.24Z" style="fill:#606269"></path><path d="M24.39,151.24q.6,0,1.2,0t1.2.09c.39,0,.79.09,1.18.15s.8.13,1.19.21.78.16,1.16.26l1.15.32,1.13.38c.38.13.75.27,1.12.43s.73.31,1.09.48l1.07.53,1,.59,1,.64c.33.22.66.45,1,.69s.64.48,1,.73.62.52.91.78.59.55.87.83.56.57.83.87.53.61.78.91.5.63.74,1,.47.65.69,1,.43.67.63,1,.4.69.59,1,.37.71.54,1.06.33.73.48,1.1.3.74.43,1.11.26.75.37,1.13.23.77.33,1.15.18.78.26,1.17.15.78.2,1.18.11.79.16,1.19l.09,1.19c0,.4,0,.8,0,1.21s0,.79,0,1.2L48.66,178c0,.4-.09.8-.16,1.19s-.12.79-.2,1.18-.17.78-.26,1.16-.21.78-.33,1.15-.24.76-.37,1.14-.28.75-.43,1.11-.32.73-.48,1.09-.36.72-.54,1.07-.38.7-.59,1-.41.67-.63,1-.45.66-.69,1-.48.64-.74,1-.51.62-.78.91-.55.59-.83.87-.57.56-.87.83-.6.53-.91.78-.62.5-1,.74-.64.47-1,.69-.67.43-1,.63-.7.4-1,.59-.71.37-1.07.54l-1.09.48c-.37.15-.74.29-1.12.42s-.75.27-1.13.38-.77.23-1.15.32-.77.19-1.16.27-.79.15-1.19.2l-1.18.16-1.2.09c-.8,0-1.61,0-2.4,0l-1.2-.09-1.19-.16c-.39,0-.79-.12-1.17-.2s-.79-.17-1.17-.27-.77-.2-1.15-.32-.76-.24-1.14-.38-.74-.27-1.1-.42-.74-.32-1.1-.48l-1.07-.54c-.34-.19-.7-.38-1-.59s-.68-.41-1-.63-.67-.45-1-.69-.64-.48-1-.74-.6-.51-.9-.78-.59-.55-.87-.83-.56-.57-.83-.87-.53-.6-.78-.91-.5-.62-.74-1-.46-.64-.69-1-.43-.67-.63-1-.4-.7-.59-1-.37-.71-.53-1.07S2,185.32,1.87,185s-.29-.74-.43-1.11-.26-.76-.37-1.14-.23-.76-.33-1.15-.18-.77-.26-1.16-.14-.79-.21-1.18S.16,178.42.12,178s-.06-.8-.08-1.19,0-.81,0-1.2,0-.81,0-1.21,0-.8.08-1.19.09-.8.15-1.19.13-.79.21-1.18.17-.78.26-1.17.21-.76.33-1.15.24-.75.37-1.13.28-.74.43-1.11.32-.74.49-1.1.34-.71.53-1.06.39-.7.59-1,.41-.68.63-1,.45-.66.69-1,.48-.64.74-1,.51-.61.78-.91.55-.59.83-.87.57-.56.87-.83l.9-.78c.32-.25.63-.5,1-.73s.64-.47,1-.69.67-.43,1-.64.69-.4,1-.59l1.07-.53c.36-.17.73-.33,1.1-.48s.73-.3,1.1-.43l1.14-.38,1.15-.32c.38-.1.78-.18,1.17-.26s.78-.15,1.17-.21.8-.11,1.19-.15.8-.07,1.2-.09S24,151.24,24.39,151.24Z" style="fill:#fbbc05"></path><path d="M459.86,151.24q.6,0,1.2,0t1.2.09c.39,0,.79.09,1.18.15s.8.13,1.19.21.77.16,1.16.26l1.15.32,1.13.38c.37.13.75.27,1.12.43s.73.31,1.09.48.72.35,1.06.53l1.05.59c.34.21.68.42,1,.64s.66.45,1,.69.63.48.94.73.62.52.91.78.59.55.87.83.56.57.83.87.53.61.79.91.49.63.73,1,.47.65.69,1,.43.67.63,1,.4.69.59,1,.37.71.54,1.06.33.73.48,1.1.3.74.43,1.11.26.75.37,1.13.23.77.32,1.15.19.78.27,1.17.15.78.2,1.18.11.79.16,1.19l.09,1.19c0,.4,0,.8,0,1.21s0,.79,0,1.2l-.09,1.19c-.05.4-.1.8-.16,1.19s-.12.79-.2,1.18-.17.78-.27,1.16-.2.78-.32,1.15-.24.76-.37,1.14-.28.75-.43,1.11-.32.73-.48,1.09-.36.72-.54,1.07-.38.7-.59,1-.42.67-.63,1-.46.66-.69,1-.48.64-.73,1-.52.62-.79.91-.55.59-.83.87-.57.56-.87.83-.6.53-.91.78-.62.5-.94.74-.65.47-1,.69-.67.43-1,.63-.7.4-1.05.59-.7.37-1.06.54l-1.09.48c-.37.15-.75.29-1.12.42s-.75.27-1.13.38-.77.23-1.15.32-.77.19-1.16.27-.79.15-1.19.2l-1.18.16-1.2.09c-.8,0-1.61,0-2.41,0l-1.19-.09-1.19-.16c-.39,0-.79-.12-1.18-.2s-.78-.17-1.16-.27-.77-.2-1.15-.32-.76-.24-1.14-.38-.74-.27-1.11-.42l-1.09-.48c-.36-.17-.71-.36-1.07-.54s-.7-.38-1-.59-.69-.41-1-.63-.66-.45-1-.69-.64-.48-.94-.74-.62-.51-.91-.78-.59-.55-.88-.83-.56-.57-.82-.87-.53-.6-.78-.91-.5-.62-.74-1-.46-.64-.69-1-.43-.67-.63-1-.4-.7-.59-1-.37-.71-.53-1.07-.34-.72-.49-1.09-.29-.74-.43-1.11-.26-.76-.37-1.14-.23-.76-.33-1.15-.18-.77-.26-1.16-.15-.79-.21-1.18-.11-.79-.15-1.19-.07-.8-.08-1.19,0-.81,0-1.2,0-.81,0-1.21,0-.8.08-1.19.09-.8.15-1.19.13-.79.21-1.18.16-.78.26-1.17.21-.76.33-1.15.24-.75.37-1.13.28-.74.43-1.11.32-.74.49-1.1.34-.71.53-1.06.39-.7.59-1,.41-.68.63-1,.45-.66.69-1,.48-.64.74-1,.51-.61.78-.91.54-.59.82-.87.58-.56.88-.83.6-.53.91-.78.62-.5.94-.73.65-.47,1-.69.68-.43,1-.64.68-.4,1-.59l1.07-.53c.36-.17.73-.33,1.09-.48s.74-.3,1.11-.43l1.14-.38,1.15-.32c.38-.1.78-.18,1.16-.26s.79-.15,1.18-.21.79-.11,1.19-.15l1.19-.09Z" style="fill:#4185f4"></path></svg>