<?xml version="1.0" encoding="iso-8859-1"?>
<!-- Generator: Adobe Illustrator 16.0.4, SVG Export Plug-In . SVG Version: 6.00 Build 0)  -->
<!DOCTYPE svg PUBLIC "-//W3C//DTD SVG 1.1//EN" "http://www.w3.org/Graphics/SVG/1.1/DTD/svg11.dtd">
<svg version="1.1" id="Layer_1" xmlns="http://www.w3.org/2000/svg" xmlns:xlink="http://www.w3.org/1999/xlink" x="0px" y="0px"
	 width="120px" height="120px" viewBox="0 0 120 120" style="enable-background:new 0 0 120 120;" xml:space="preserve">
<path id="path4597_11_" style="fill:#FFFFFF;" d="M31.556,39.461c3.028,0.683,3.927-0.394,5.003-1.775
	c1.076-1.392,2.482-3.238,3.058-4.406c0.383-0.785,0.695-1.484-0.178-2.501c-0.866-1.015-4.013-4.208-4.883-4.992
	c-1.537-1.418-2.103-0.582-3.164,0.16c-1.072,0.728-3.054,2.791-4.227,2.89c-1.214,0.107-8.771-6.85-9.005-7.087
	c0,0-7.34-7.678-7.258-8.914c0.078-1.187,2.091-3.218,2.808-4.298c0.704-1.083,1.524-1.669,0.086-3.192
	C13,4.493,9.765,1.403,8.735,0.54C7.709-0.319,7.013,0.008,6.242,0.416C5.099,1.006,3.281,2.458,1.917,3.56
	C0.563,4.678-0.49,5.604,0.237,8.623c0.256,1.047,2.926,7.943,13.136,18.015C23.59,36.709,30.511,39.228,31.556,39.461z"/>
<line style="fill:none;stroke:#FFFFFF;stroke-width:2;stroke-miterlimit:10;" x1="54" y1="6" x2="46" y2="14"/>
<line style="fill:none;stroke:#FFFFFF;stroke-width:2;stroke-miterlimit:10;" x1="54" y1="14" x2="46" y2="6"/>
<g>
	<path style="fill:#697080;" d="M43.061,23.555c-0.068,0.768-0.105,1.541-0.105,2.332c0,7.314,2.926,9.654,7.043,12.113
		c4.119-2.459,7.047-4.799,7.047-12.113c0-0.791-0.039-1.564-0.107-2.332L49.998,22L43.061,23.555z"/>
	<polyline style="fill:none;stroke:#FFFFFF;stroke-width:2;stroke-miterlimit:10;" points="54.367,27.035 49.523,31.873 
		46.725,29.076 	"/>
</g>
<g>
	<path style="fill:#FFFFFF;" d="M82.184,46.356c0.254-0.042,0.498-0.062,0.73-0.062c0.24,0,0.492,0.021,0.752,0.062v6.107h2.564
		c0.021,0.117,0.035,0.229,0.043,0.335c0.006,0.106,0.01,0.208,0.01,0.304c0,0.11-0.004,0.218-0.01,0.324
		c-0.008,0.106-0.021,0.219-0.043,0.335h-4.047V46.356z"/>
	<path style="fill:#FFFFFF;" d="M87.424,49.549h-0.689c-0.021-0.089-0.037-0.184-0.047-0.283s-0.016-0.193-0.016-0.283
		c0-0.186,0.021-0.367,0.062-0.546h2.121v5.325c-0.246,0.041-0.488,0.062-0.721,0.062c-0.227,0-0.463-0.021-0.711-0.062V49.549z
		 M87.207,47.54c-0.041-0.232-0.061-0.463-0.061-0.689c0-0.22,0.02-0.45,0.061-0.69c0.117-0.021,0.242-0.036,0.377-0.046
		c0.133-0.011,0.256-0.016,0.365-0.016c0.117,0,0.244,0.005,0.381,0.016c0.137,0.01,0.264,0.025,0.381,0.046
		c0.021,0.117,0.035,0.231,0.041,0.345c0.008,0.114,0.012,0.229,0.012,0.346c0,0.109-0.004,0.223-0.012,0.34
		c-0.006,0.117-0.02,0.233-0.041,0.35c-0.117,0.021-0.242,0.035-0.375,0.042c-0.135,0.007-0.26,0.01-0.377,0.01
		c-0.109,0-0.232-0.003-0.371-0.01C87.451,47.575,87.324,47.562,87.207,47.54z"/>
	<path style="fill:#FFFFFF;" d="M89.689,48.447c0.164-0.034,0.318-0.056,0.459-0.062s0.262-0.01,0.365-0.01
		c0.137,0,0.275,0.003,0.412,0.01s0.264,0.024,0.381,0.052l1.164,3.966l1.143-3.966c0.117-0.021,0.24-0.036,0.371-0.046
		c0.131-0.011,0.262-0.016,0.393-0.016c0.102,0,0.221,0.003,0.355,0.01c0.133,0.007,0.285,0.028,0.457,0.062l-2.018,5.314
		c-0.131,0.021-0.27,0.034-0.412,0.041c-0.145,0.007-0.266,0.011-0.361,0.011c-0.104,0-0.219-0.004-0.35-0.011
		s-0.254-0.024-0.371-0.052L89.689,48.447z"/>
	<path style="fill:#FFFFFF;" d="M96.992,51.547c0.027,0.412,0.172,0.711,0.434,0.896c0.26,0.186,0.604,0.278,1.029,0.278
		c0.234,0,0.473-0.022,0.717-0.067c0.242-0.044,0.475-0.108,0.695-0.19c0.074,0.138,0.141,0.303,0.195,0.494
		c0.055,0.192,0.086,0.398,0.092,0.618c-0.535,0.206-1.139,0.31-1.812,0.31c-0.494,0-0.918-0.069-1.271-0.206
		c-0.354-0.138-0.643-0.328-0.865-0.572c-0.223-0.243-0.389-0.533-0.494-0.87c-0.107-0.336-0.16-0.704-0.16-1.103
		c0-0.391,0.055-0.758,0.164-1.102c0.111-0.344,0.273-0.642,0.49-0.896c0.217-0.254,0.484-0.454,0.803-0.603
		c0.32-0.147,0.691-0.221,1.117-0.221c0.371,0,0.701,0.064,0.99,0.195c0.287,0.131,0.533,0.309,0.736,0.535
		c0.201,0.227,0.355,0.496,0.457,0.809c0.104,0.312,0.156,0.647,0.156,1.005c0,0.13-0.006,0.259-0.016,0.386
		c-0.012,0.127-0.023,0.229-0.037,0.304H96.992z M99.084,50.527c-0.014-0.329-0.105-0.596-0.273-0.798
		c-0.168-0.203-0.402-0.304-0.705-0.304c-0.344,0-0.605,0.096-0.783,0.288s-0.285,0.464-0.318,0.813H99.084z"/>
	<path style="fill:#FFFFFF;" d="M106.529,52.361c0.09,0.192,0.164,0.39,0.223,0.592c0.059,0.203,0.102,0.407,0.129,0.613
		c-0.357,0.13-0.68,0.216-0.963,0.257c-0.285,0.041-0.594,0.062-0.922,0.062c-0.584,0-1.096-0.095-1.535-0.283
		c-0.439-0.189-0.809-0.454-1.107-0.794s-0.523-0.743-0.676-1.21c-0.15-0.467-0.227-0.975-0.227-1.524
		c0-0.549,0.08-1.059,0.238-1.529s0.387-0.877,0.684-1.221c0.299-0.344,0.666-0.611,1.104-0.804
		c0.436-0.191,0.932-0.288,1.488-0.288c0.33,0,0.633,0.021,0.91,0.062c0.279,0.041,0.58,0.127,0.902,0.258
		c-0.014,0.206-0.055,0.407-0.123,0.603c-0.07,0.195-0.145,0.394-0.227,0.592c-0.24-0.082-0.453-0.141-0.639-0.175
		s-0.406-0.052-0.66-0.052c-0.658,0-1.166,0.215-1.52,0.645c-0.354,0.429-0.529,1.065-0.529,1.91c0,1.676,0.711,2.514,2.131,2.514
		c0.254,0,0.479-0.018,0.67-0.052C106.074,52.502,106.289,52.443,106.529,52.361z"/>
	<path style="fill:#FFFFFF;" d="M110.66,50.26c0-0.165-0.027-0.299-0.082-0.401c-0.055-0.104-0.131-0.184-0.227-0.242
		s-0.215-0.098-0.355-0.119c-0.141-0.021-0.297-0.03-0.469-0.03c-0.371,0-0.766,0.072-1.186,0.216
		c-0.096-0.178-0.168-0.347-0.215-0.505c-0.049-0.157-0.072-0.346-0.072-0.566c0.301-0.103,0.604-0.178,0.906-0.227
		c0.303-0.048,0.584-0.071,0.844-0.071c0.715,0,1.273,0.171,1.674,0.515c0.402,0.344,0.604,0.893,0.604,1.647v3.091
		c-0.24,0.075-0.533,0.147-0.877,0.216c-0.342,0.068-0.73,0.104-1.162,0.104c-0.352,0-0.672-0.031-0.965-0.093
		c-0.291-0.062-0.541-0.165-0.75-0.31c-0.211-0.144-0.371-0.329-0.484-0.556s-0.17-0.505-0.17-0.835c0-0.329,0.07-0.605,0.211-0.829
		c0.141-0.223,0.322-0.401,0.545-0.535s0.473-0.23,0.748-0.288c0.273-0.059,0.549-0.088,0.822-0.088c0.199,0,0.42,0.01,0.66,0.031
		V50.26z M110.66,51.32c-0.082-0.014-0.172-0.025-0.268-0.036c-0.096-0.01-0.182-0.015-0.258-0.015c-0.336,0-0.602,0.06-0.799,0.18
		c-0.195,0.12-0.293,0.314-0.293,0.582c0,0.179,0.037,0.316,0.113,0.412c0.076,0.097,0.166,0.167,0.273,0.211
		c0.105,0.045,0.219,0.072,0.34,0.083c0.119,0.01,0.225,0.015,0.314,0.015c0.102,0,0.205-0.008,0.309-0.025
		c0.104-0.017,0.191-0.032,0.268-0.046V51.32z"/>
	<path style="fill:#FFFFFF;" d="M113.365,46.232c0.248-0.041,0.492-0.062,0.732-0.062c0.232,0,0.473,0.021,0.721,0.062v5.407
		c0,0.213,0.012,0.385,0.035,0.516c0.025,0.13,0.062,0.231,0.113,0.304c0.053,0.072,0.119,0.122,0.201,0.149
		s0.186,0.041,0.309,0.041c0.055,0,0.115-0.004,0.182-0.011c0.064-0.007,0.129-0.017,0.189-0.03
		c0.076,0.281,0.113,0.556,0.113,0.823c0,0.056,0,0.105,0,0.149c0,0.045-0.006,0.095-0.02,0.149
		c-0.111,0.034-0.242,0.059-0.396,0.072s-0.297,0.021-0.428,0.021c-0.529,0-0.953-0.146-1.271-0.438
		c-0.32-0.292-0.48-0.768-0.48-1.427V46.232z"/>
	<path style="fill:#FFFFFF;" d="M116.719,46.232c0.248-0.041,0.492-0.062,0.732-0.062c0.232,0,0.473,0.021,0.721,0.062v5.407
		c0,0.213,0.012,0.385,0.035,0.516c0.025,0.13,0.062,0.231,0.113,0.304c0.053,0.072,0.119,0.122,0.201,0.149
		s0.186,0.041,0.309,0.041c0.055,0,0.115-0.004,0.182-0.011c0.064-0.007,0.129-0.017,0.189-0.03
		c0.076,0.281,0.113,0.556,0.113,0.823c0,0.056,0,0.105,0,0.149c0,0.045-0.006,0.095-0.02,0.149
		c-0.111,0.034-0.242,0.059-0.396,0.072s-0.297,0.021-0.428,0.021c-0.529,0-0.953-0.146-1.271-0.438
		c-0.32-0.292-0.48-0.768-0.48-1.427V46.232z"/>
</g>
<g>
	<path style="fill:#FFFFFF;" d="M72.004,46.132c-0.334,0-0.66,0.038-0.975,0.106c-0.875-2.569-3.307-4.417-6.172-4.417
		c-2.508,0-4.686,1.417-5.775,3.495c-2.281,0.127-4.15,1.797-4.582,3.984c-0.062,0.312-0.096,0.635-0.096,0.965
		c0,0.361,0.047,0.71,0.121,1.05c0.004,0.02,0.002,0.041,0.006,0.061c0.051,0.223,0.125,0.436,0.205,0.646
		c0.014,0.039,0.021,0.08,0.037,0.118c0.107,0.267,0.242,0.52,0.395,0.76c0.051,0.079,0.109,0.15,0.164,0.228
		c0.113,0.158,0.229,0.312,0.359,0.455c0.072,0.081,0.15,0.154,0.229,0.23c0.129,0.125,0.262,0.243,0.404,0.354
		c0.088,0.069,0.178,0.135,0.271,0.197c0.148,0.102,0.303,0.19,0.463,0.275c0.098,0.052,0.193,0.104,0.295,0.149
		c0.178,0.079,0.363,0.142,0.553,0.2c0.092,0.028,0.18,0.064,0.275,0.087c0.287,0.07,0.582,0.121,0.885,0.139
		c0.1,0.008,0.197,0.01,0.297,0.01h0.002h0.461l2.957,2.955v-2.955h9.221c0.941,0,1.816-0.285,2.543-0.775
		c0.24-0.164,0.465-0.35,0.672-0.555c0.205-0.205,0.391-0.432,0.555-0.673c0.49-0.726,0.775-1.601,0.775-2.542
		C76.549,48.168,74.516,46.132,72.004,46.132z M69.166,52.068c-0.158,0.233-0.516,0.591-0.789,0.856
		c-0.271,0.267-0.498,0.471-1.129,0.244c-0.215-0.079-1.494-0.651-3.389-3.077c-1.893-2.429-2.127-3.819-2.15-4.05
		c-0.066-0.665,0.188-0.833,0.514-1.034c0.324-0.199,0.758-0.461,1.021-0.555c0.178-0.065,0.336-0.116,0.533,0.097
		c0.195,0.211,0.795,0.959,0.941,1.163c0.264,0.365,0.07,0.467-0.113,0.678c-0.188,0.212-0.68,0.591-0.73,0.841
		c-0.055,0.263,1.16,1.945,1.16,1.945c0.041,0.058,1.324,1.593,1.59,1.604c0.254,0.011,0.742-0.376,0.992-0.502
		c0.25-0.129,0.396-0.292,0.686,0.053c0.16,0.191,0.744,0.958,0.898,1.198C69.359,51.769,69.271,51.911,69.166,52.068z"/>
</g>
<g>
	<path style="fill:#FFFFFF;" d="M2.492,51.439v2.518H1.585v-6.729h1.986c0.426,0,0.796,0.049,1.11,0.147
		c0.315,0.099,0.575,0.239,0.782,0.421s0.36,0.4,0.463,0.657c0.102,0.257,0.152,0.543,0.152,0.859c0,0.313-0.055,0.6-0.164,0.859
		c-0.11,0.26-0.271,0.483-0.481,0.672c-0.212,0.188-0.474,0.334-0.787,0.438c-0.312,0.105-0.671,0.157-1.075,0.157H2.492z
		 M2.492,50.717h1.08c0.26,0,0.489-0.034,0.688-0.104c0.198-0.068,0.365-0.165,0.5-0.289c0.134-0.123,0.236-0.271,0.305-0.443
		c0.069-0.172,0.104-0.361,0.104-0.568c0-0.429-0.132-0.764-0.396-1.005s-0.665-0.361-1.2-0.361h-1.08V50.717z"/>
	<path style="fill:#FFFFFF;" d="M8.883,49.125c0.348,0,0.661,0.058,0.941,0.174c0.28,0.115,0.518,0.28,0.714,0.493
		c0.195,0.213,0.346,0.47,0.45,0.772c0.105,0.302,0.158,0.639,0.158,1.012c0,0.376-0.053,0.714-0.158,1.015
		c-0.104,0.3-0.255,0.557-0.45,0.77c-0.196,0.213-0.434,0.377-0.714,0.491s-0.594,0.171-0.941,0.171s-0.662-0.057-0.941-0.171
		c-0.28-0.114-0.52-0.278-0.717-0.491s-0.349-0.47-0.455-0.77c-0.106-0.301-0.16-0.639-0.16-1.015c0-0.373,0.054-0.71,0.16-1.012
		c0.106-0.303,0.258-0.56,0.455-0.772s0.437-0.378,0.717-0.493C8.221,49.183,8.536,49.125,8.883,49.125z M8.883,53.37
		c0.47,0,0.82-0.157,1.052-0.472c0.231-0.315,0.348-0.754,0.348-1.317c0-0.566-0.116-1.008-0.348-1.324s-0.582-0.475-1.052-0.475
		c-0.238,0-0.445,0.041-0.62,0.122c-0.176,0.081-0.321,0.199-0.439,0.353c-0.117,0.153-0.205,0.342-0.263,0.565
		s-0.087,0.477-0.087,0.759c0,0.281,0.029,0.533,0.087,0.756s0.146,0.409,0.263,0.562c0.118,0.151,0.264,0.269,0.439,0.35
		C8.438,53.329,8.645,53.37,8.883,53.37z"/>
	<path style="fill:#FFFFFF;" d="M11.559,49.2h0.658c0.068,0,0.125,0.017,0.169,0.052c0.044,0.034,0.073,0.075,0.089,0.122
		l0.911,3.062c0.025,0.112,0.049,0.222,0.07,0.326c0.021,0.105,0.041,0.211,0.057,0.317c0.024-0.106,0.053-0.212,0.084-0.317
		c0.031-0.104,0.064-0.214,0.099-0.326l1.005-3.081c0.016-0.047,0.043-0.086,0.083-0.117c0.039-0.031,0.088-0.047,0.147-0.047h0.361
		c0.062,0,0.114,0.016,0.155,0.047s0.068,0.07,0.085,0.117l0.981,3.081c0.034,0.109,0.064,0.218,0.091,0.324
		c0.027,0.106,0.053,0.211,0.078,0.314c0.016-0.104,0.036-0.211,0.061-0.324c0.025-0.112,0.052-0.218,0.08-0.314l0.93-3.062
		c0.016-0.051,0.046-0.092,0.089-0.125c0.044-0.032,0.096-0.049,0.155-0.049h0.63l-1.541,4.757h-0.662
		c-0.081,0-0.138-0.053-0.169-0.159l-1.052-3.227c-0.025-0.072-0.046-0.145-0.062-0.219c-0.016-0.073-0.031-0.146-0.047-0.218
		c-0.016,0.071-0.031,0.146-0.047,0.221s-0.036,0.148-0.061,0.221l-1.066,3.222c-0.034,0.106-0.099,0.159-0.192,0.159H13.1
		L11.559,49.2z"/>
	<path style="fill:#FFFFFF;" d="M21.256,49.125c0.285,0,0.549,0.048,0.789,0.143c0.242,0.096,0.449,0.233,0.625,0.414
		c0.176,0.18,0.312,0.402,0.412,0.666c0.098,0.265,0.146,0.566,0.146,0.904c0,0.132-0.014,0.22-0.041,0.263
		c-0.029,0.044-0.082,0.066-0.16,0.066h-3.166c0.007,0.301,0.047,0.562,0.122,0.784c0.075,0.222,0.179,0.407,0.311,0.557
		c0.131,0.148,0.288,0.26,0.469,0.333c0.182,0.073,0.385,0.11,0.612,0.11c0.209,0,0.391-0.024,0.541-0.072
		c0.152-0.049,0.283-0.102,0.393-0.158c0.109-0.056,0.201-0.108,0.275-0.157c0.072-0.048,0.137-0.072,0.189-0.072
		c0.068,0,0.123,0.026,0.16,0.08l0.234,0.305c-0.104,0.125-0.227,0.234-0.371,0.326c-0.145,0.093-0.299,0.169-0.463,0.229
		s-0.334,0.104-0.51,0.134c-0.174,0.029-0.348,0.044-0.52,0.044c-0.33,0-0.632-0.056-0.91-0.166
		c-0.277-0.111-0.517-0.274-0.719-0.489c-0.202-0.214-0.359-0.479-0.472-0.796c-0.112-0.315-0.169-0.679-0.169-1.089
		c0-0.332,0.051-0.642,0.152-0.93s0.248-0.538,0.439-0.749c0.19-0.212,0.424-0.378,0.699-0.498S20.913,49.125,21.256,49.125z
		 M21.275,49.74c-0.404,0-0.721,0.116-0.954,0.35c-0.231,0.233-0.375,0.557-0.432,0.97h2.588c0-0.194-0.027-0.372-0.08-0.533
		c-0.055-0.161-0.133-0.301-0.234-0.418c-0.104-0.117-0.23-0.208-0.379-0.272C21.637,49.772,21.467,49.74,21.275,49.74z"/>
	<path style="fill:#FFFFFF;" d="M24.295,53.957V49.2h0.48c0.09,0,0.152,0.017,0.188,0.052c0.033,0.034,0.057,0.094,0.07,0.178
		l0.057,0.742c0.162-0.332,0.363-0.591,0.604-0.777c0.238-0.186,0.52-0.279,0.842-0.279c0.133,0,0.25,0.015,0.357,0.045
		c0.105,0.029,0.205,0.071,0.295,0.124l-0.107,0.625c-0.021,0.078-0.07,0.117-0.145,0.117c-0.045,0-0.111-0.015-0.203-0.045
		c-0.09-0.029-0.217-0.044-0.381-0.044c-0.291,0-0.533,0.084-0.729,0.253c-0.197,0.169-0.359,0.415-0.492,0.737v3.029H24.295z"/>
	<path style="fill:#FFFFFF;" d="M29.963,49.125c0.285,0,0.549,0.048,0.789,0.143c0.242,0.096,0.449,0.233,0.625,0.414
		c0.176,0.18,0.312,0.402,0.412,0.666c0.098,0.265,0.146,0.566,0.146,0.904c0,0.132-0.014,0.22-0.041,0.263
		c-0.029,0.044-0.082,0.066-0.16,0.066h-3.166c0.008,0.301,0.047,0.562,0.123,0.784c0.074,0.222,0.178,0.407,0.311,0.557
		c0.131,0.148,0.287,0.26,0.469,0.333s0.385,0.11,0.611,0.11c0.209,0,0.391-0.024,0.541-0.072c0.152-0.049,0.283-0.102,0.393-0.158
		c0.109-0.056,0.201-0.108,0.275-0.157c0.072-0.048,0.137-0.072,0.189-0.072c0.068,0,0.123,0.026,0.16,0.08l0.234,0.305
		c-0.104,0.125-0.227,0.234-0.371,0.326c-0.145,0.093-0.299,0.169-0.463,0.229s-0.334,0.104-0.51,0.134
		c-0.174,0.029-0.348,0.044-0.52,0.044c-0.33,0-0.633-0.056-0.91-0.166c-0.277-0.111-0.516-0.274-0.719-0.489
		c-0.201-0.214-0.359-0.479-0.471-0.796c-0.113-0.315-0.17-0.679-0.17-1.089c0-0.332,0.051-0.642,0.152-0.93
		s0.248-0.538,0.439-0.749c0.191-0.212,0.424-0.378,0.699-0.498S29.619,49.125,29.963,49.125z M29.982,49.74
		c-0.404,0-0.721,0.116-0.953,0.35s-0.375,0.557-0.432,0.97h2.588c0-0.194-0.027-0.372-0.08-0.533
		c-0.055-0.161-0.133-0.301-0.234-0.418c-0.104-0.117-0.23-0.208-0.379-0.272C30.344,49.772,30.174,49.74,29.982,49.74z"/>
	<path style="fill:#FFFFFF;" d="M36.35,53.957c-0.119,0-0.193-0.058-0.225-0.174l-0.076-0.577c-0.203,0.247-0.436,0.445-0.697,0.594
		s-0.561,0.223-0.898,0.223c-0.273,0-0.52-0.052-0.742-0.157c-0.223-0.104-0.412-0.259-0.568-0.462
		c-0.156-0.204-0.277-0.457-0.361-0.761s-0.127-0.653-0.127-1.048c0-0.351,0.047-0.677,0.141-0.979
		c0.094-0.303,0.229-0.564,0.406-0.787s0.393-0.396,0.646-0.523c0.252-0.127,0.541-0.19,0.863-0.19c0.291,0,0.541,0.05,0.746,0.148
		c0.207,0.099,0.393,0.236,0.555,0.415V47.04h0.836v6.917H36.35z M34.73,53.347c0.271,0,0.51-0.062,0.715-0.188
		c0.205-0.126,0.395-0.303,0.566-0.531v-2.301c-0.154-0.207-0.322-0.352-0.504-0.435c-0.184-0.083-0.387-0.124-0.609-0.124
		c-0.443,0-0.785,0.157-1.023,0.474s-0.357,0.768-0.357,1.353c0,0.311,0.027,0.575,0.08,0.796s0.131,0.402,0.234,0.545
		s0.23,0.247,0.381,0.312S34.535,53.347,34.73,53.347z"/>
	<path style="fill:#FFFFFF;" d="M40.094,53.957V47.04h0.84v2.846c0.197-0.229,0.424-0.413,0.68-0.552
		c0.254-0.14,0.547-0.209,0.875-0.209c0.275,0,0.523,0.052,0.746,0.154c0.223,0.104,0.412,0.258,0.568,0.463
		s0.277,0.459,0.361,0.761c0.086,0.303,0.127,0.65,0.127,1.045c0,0.351-0.047,0.677-0.141,0.979
		c-0.094,0.302-0.229,0.563-0.406,0.784c-0.176,0.221-0.393,0.395-0.648,0.521c-0.254,0.126-0.541,0.189-0.861,0.189
		c-0.307,0-0.566-0.06-0.781-0.178c-0.215-0.119-0.402-0.285-0.562-0.498l-0.041,0.432c-0.025,0.119-0.098,0.179-0.217,0.179H40.094
		z M42.217,49.792c-0.273,0-0.512,0.062-0.717,0.188s-0.395,0.302-0.566,0.53v2.302c0.15,0.206,0.316,0.352,0.5,0.437
		c0.184,0.084,0.389,0.127,0.613,0.127c0.445,0,0.785-0.158,1.023-0.475s0.357-0.767,0.357-1.353c0-0.31-0.027-0.576-0.082-0.798
		c-0.055-0.223-0.135-0.405-0.238-0.548c-0.104-0.142-0.229-0.246-0.379-0.312C42.578,49.824,42.406,49.792,42.217,49.792z"/>
	<path style="fill:#FFFFFF;" d="M46.588,55.361c-0.029,0.062-0.064,0.112-0.105,0.15c-0.043,0.037-0.107,0.056-0.195,0.056h-0.619
		l0.867-1.888L44.572,49.2h0.725c0.072,0,0.127,0.018,0.168,0.054s0.07,0.076,0.09,0.12l1.273,2.996
		c0.027,0.068,0.051,0.138,0.072,0.206c0.02,0.069,0.037,0.14,0.053,0.212c0.023-0.072,0.045-0.143,0.066-0.212
		c0.021-0.068,0.047-0.139,0.076-0.211l1.234-2.991c0.02-0.051,0.051-0.092,0.096-0.125c0.045-0.032,0.096-0.049,0.148-0.049h0.666
		L46.588,55.361z"/>
</g>
<line style="fill:none;stroke:#697080;stroke-width:2;stroke-miterlimit:10;" x1="74" y1="6" x2="66" y2="14"/>
<line style="fill:none;stroke:#697080;stroke-width:2;stroke-miterlimit:10;" x1="74" y1="14" x2="66" y2="6"/>
<path style="fill:#39AD72;" d="M12.076,65.152c0,2.297-1.861,4.157-4.155,4.157s-4.152-1.86-4.152-4.157
	C3.769,62.86,5.627,61,7.921,61S12.076,62.86,12.076,65.152z"/>
<path style="fill:#39AD72;" d="M7.921,69.771C4.098,69.771,1,72.868,1,76.695V79h13.845v-2.305
	C14.845,72.868,11.748,69.771,7.921,69.771z"/>
<circle style="fill:#697080;" cx="28.692" cy="72.076" r="2.077"/>
<circle style="fill:#697080;" cx="42.539" cy="72.076" r="2.076"/>
<path style="fill:#697080;" d="M58.463,72.076c0,1.146-0.932,2.076-2.076,2.076c-1.15,0-2.082-0.93-2.082-2.076S55.236,70,56.387,70
	C57.531,70,58.463,70.93,58.463,72.076z"/>
<circle style="fill:#39AD72;" cx="7.923" cy="85.155" r="4.154"/>
<path style="fill:#39AD72;" d="M7.923,89.771C4.099,89.771,1,92.869,1,96.694V99h13.846v-2.306
	C14.846,92.869,11.747,89.771,7.923,89.771z"/>
<circle style="fill:#39AD72;" cx="77.15" cy="85.155" r="4.154"/>
<path style="fill:#39AD72;" d="M77.15,89.771c-3.824,0-6.923,3.099-6.923,6.924V99h13.845v-2.306
	C84.072,92.869,80.975,89.771,77.15,89.771z"/>
<circle style="fill:#39AD72;" cx="28.691" cy="92.077" r="2.077"/>
<circle style="fill:#39AD72;" cx="42.536" cy="92.077" r="2.077"/>
<circle style="fill:#39AD72;" cx="56.382" cy="92.077" r="2.076"/>
<g>
	<path style="fill:#697080;" d="M70.598,64.65c0.24-0.203,0.502-0.393,0.783-0.562c0.281-0.175,0.582-0.33,0.902-0.465
		c0.326-0.13,0.67-0.233,1.041-0.307c0.377-0.078,0.773-0.114,1.209-0.114c0.609,0,1.156,0.082,1.646,0.243
		c0.482,0.16,0.9,0.391,1.24,0.695c0.346,0.3,0.609,0.659,0.791,1.082c0.186,0.423,0.277,0.895,0.277,1.414
		c0,0.496-0.068,0.921-0.201,1.275c-0.137,0.359-0.311,0.666-0.521,0.931c-0.209,0.265-0.439,0.493-0.688,0.685
		s-0.486,0.369-0.705,0.539c-0.225,0.166-0.418,0.334-0.582,0.494c-0.168,0.161-0.27,0.34-0.309,0.543l-0.27,1.356h-2.055
		l-0.213-1.562c-0.01-0.038-0.014-0.075-0.016-0.113c-0.002-0.043-0.004-0.08-0.004-0.118c0-0.283,0.064-0.531,0.201-0.749
		c0.137-0.213,0.311-0.407,0.514-0.585c0.207-0.177,0.432-0.35,0.668-0.513c0.24-0.162,0.465-0.345,0.668-0.531
		c0.209-0.191,0.381-0.403,0.518-0.643c0.133-0.233,0.201-0.514,0.201-0.84c0-0.388-0.127-0.693-0.379-0.923
		c-0.258-0.229-0.607-0.346-1.053-0.346c-0.346,0-0.629,0.035-0.859,0.106c-0.229,0.071-0.424,0.152-0.592,0.239
		c-0.164,0.088-0.307,0.165-0.43,0.235c-0.123,0.071-0.246,0.106-0.367,0.106c-0.279,0-0.488-0.115-0.625-0.356L70.598,64.65z
		 M72.383,75.959c0-0.231,0.041-0.451,0.129-0.65c0.088-0.198,0.209-0.373,0.361-0.524c0.148-0.146,0.328-0.266,0.535-0.353
		c0.209-0.088,0.436-0.129,0.682-0.129c0.234,0,0.459,0.041,0.668,0.129c0.207,0.087,0.387,0.206,0.543,0.353
		c0.156,0.151,0.273,0.326,0.361,0.524c0.086,0.199,0.133,0.419,0.133,0.65s-0.047,0.452-0.133,0.652
		c-0.088,0.206-0.205,0.382-0.361,0.528c-0.156,0.151-0.336,0.265-0.543,0.35c-0.209,0.085-0.434,0.125-0.668,0.125
		c-0.246,0-0.473-0.04-0.682-0.125c-0.207-0.085-0.387-0.198-0.535-0.35c-0.152-0.146-0.273-0.322-0.361-0.528
		C72.424,76.411,72.383,76.19,72.383,75.959z"/>
</g>
<path style="fill:#39AD72;" d="M12.076,105.152c0,2.297-1.859,4.157-4.152,4.157s-4.155-1.86-4.155-4.157
	c0-2.292,1.861-4.152,4.155-4.152S12.076,102.86,12.076,105.152z"/>
<path style="fill:#39AD72;" d="M7.924,109.771C4.1,109.771,1,112.868,1,116.695V119h13.845v-2.305
	C14.845,112.868,11.748,109.771,7.924,109.771z"/>
<path style="fill:#F05B5B;" d="M30.77,112.076c0,1.146-0.932,2.076-2.076,2.076c-1.148,0-2.079-0.93-2.079-2.076
	S27.545,110,28.693,110C29.838,110,30.77,110.93,30.77,112.076z"/>
<path style="fill:#F05B5B;" d="M44.617,112.076c0,1.146-0.932,2.076-2.076,2.076c-1.15,0-2.082-0.93-2.082-2.076
	S41.391,110,42.541,110C43.686,110,44.617,110.93,44.617,112.076z"/>
<circle style="fill:#F05B5B;" cx="56.383" cy="112.076" r="2.076"/>
<line style="fill:none;stroke:#F05B5B;stroke-width:3;stroke-miterlimit:10;" x1="78.541" y1="107.924" x2="70.23" y2="116.229"/>
<line style="fill:none;stroke:#F05B5B;stroke-width:3;stroke-miterlimit:10;" x1="78.541" y1="116.229" x2="70.23" y2="107.924"/>
<g>
</g>
<g>
</g>
<g>
</g>
<g>
</g>
<g>
</g>
<g>
</g>
<g>
</g>
<g>
</g>
<g>
</g>
<g>
</g>
<g>
</g>
<g>
</g>
<g>
</g>
<g>
</g>
<g>
</g>
</svg>
